<svg width="33" height="32" viewBox="0 0 33 32" fill="none" xmlns="http://www.w3.org/2000/svg">
<path d="M19.8125 8.125C19.022 8.12482 18.2424 8.30982 17.5362 8.66517C16.83 9.02053 16.2169 9.53636 15.746 10.1713C15.2751 10.8063 14.9594 11.5427 14.8244 12.3217C14.6893 13.1006 14.7386 13.9003 14.9682 14.6568L9.125 20.5V23.875H12.5L18.3432 18.0317C19.0396 18.2431 19.7733 18.3019 20.4944 18.204C21.2154 18.1062 21.907 17.854 22.5218 17.4648C23.1366 17.0755 23.6603 16.5583 24.0571 15.9483C24.454 15.3383 24.7146 14.65 24.8214 13.9302C24.9282 13.2104 24.8785 12.476 24.6757 11.7771C24.473 11.0782 24.122 10.4313 23.6466 9.88032C23.1712 9.32936 22.5827 8.88737 21.921 8.58446C21.2594 8.28154 20.5402 8.12483 19.8125 8.125ZM19.8125 17.125C19.4252 17.1248 19.0401 17.0675 18.6695 16.9551L18.0243 16.7594L17.5479 17.2358L15.7586 19.0251L14.9829 18.25L14.1875 19.0454L14.9632 19.8211L14.0711 20.7132L13.2954 19.9375L12.5 20.7329L13.2757 21.5086L12.0342 22.75H10.25V20.9657L15.7636 15.4521L16.2406 14.9757L16.0449 14.3305C15.8045 13.5379 15.8201 12.6897 16.0895 11.9066C16.3589 11.1234 16.8685 10.4451 17.5456 9.96821C18.2228 9.49133 19.0331 9.24011 19.8613 9.2503C20.6894 9.26049 21.4933 9.53156 22.1585 10.025C22.8237 10.5184 23.3164 11.209 23.5665 11.9985C23.8166 12.7881 23.8114 13.6364 23.5515 14.4229C23.2917 15.2093 22.7905 15.8937 22.1192 16.3788C21.4479 16.864 20.6407 17.1251 19.8125 17.125Z" fill="#6C757D"/>
<path d="M20.375 13.75C20.9963 13.75 21.5 13.2463 21.5 12.625C21.5 12.0037 20.9963 11.5 20.375 11.5C19.7537 11.5 19.25 12.0037 19.25 12.625C19.25 13.2463 19.7537 13.75 20.375 13.75Z" fill="#6C757D"/>
</svg>
