<svg width="14" height="18" viewBox="0 0 14 18" fill="none" xmlns="http://www.w3.org/2000/svg">
<path d="M8.21177 0C9.14326 0.707476 10.0744 1.4153 11.0059 2.12243C11.3239 2.36412 11.6454 2.60158 11.9593 2.84855C12.0113 2.88936 12.0654 2.96887 12.0664 3.03113C12.0748 3.55778 12.0711 4.08478 12.0711 4.64872C11.8864 4.52841 11.7203 4.42638 11.5623 4.31205C11.5319 4.28989 11.5242 4.21917 11.5235 4.17027C11.5191 3.92401 11.5157 3.67775 11.5218 3.43149C11.5252 3.29463 11.4776 3.19859 11.3722 3.11909C10.3239 2.32929 9.27628 1.53879 8.23169 0.743711C8.12061 0.659279 8.02439 0.661741 7.90386 0.709938C6.64622 1.21513 5.38724 1.71645 4.1286 2.21847C3.63567 2.41513 3.1441 2.61636 2.64881 2.80598C2.48202 2.86966 2.40876 2.96605 2.4172 3.15743C2.42969 3.44415 2.41349 3.73193 2.41855 4.019C2.42058 4.13931 2.37939 4.20018 2.2673 4.22938C2.13731 4.2635 2.01172 4.31381 1.85979 4.36552C1.85439 4.2839 1.84629 4.21741 1.84629 4.15092C1.84527 3.68197 1.84831 3.21266 1.84426 2.74371C1.84291 2.5759 1.90132 2.4788 2.06 2.41583C4.01752 1.63975 5.97267 0.857696 7.92817 0.0763412C7.97948 0.0559367 8.02709 0.0256816 8.07638 0C8.12196 0 8.16686 0 8.21177 0Z" fill="#1D4C90"/>
<path d="M14.0002 17.9993C9.31943 17.9993 4.6677 17.9993 0.00450183 17.9993C0.00450183 17.7428 -0.00697724 17.4924 0.00889089 17.2436C0.017669 17.1082 0.128071 17.0544 0.25434 17.0537C0.382298 17.0526 0.510594 17.0533 0.656445 17.0533C0.656445 16.927 0.656445 16.8285 0.656445 16.73C0.656445 13.0016 0.656445 9.27284 0.656445 5.54443C0.656445 5.22816 0.683793 5.19016 0.969756 5.09272C3.32161 4.2892 5.67314 3.48392 8.02702 2.68744C8.11885 2.65648 8.25626 2.67301 8.33864 2.72543C9.96057 3.75657 11.5768 4.7972 13.1967 5.83185C13.3141 5.90679 13.3476 5.99931 13.3472 6.13546C13.3445 9.01989 13.3449 11.904 13.3445 14.7884C13.3445 15.4744 13.3486 16.1604 13.3408 16.8461C13.3391 17.0076 13.3877 17.0727 13.5414 17.053C13.5913 17.0466 13.6426 17.0512 13.6933 17.0523C13.9188 17.0579 13.9978 17.1399 13.9995 17.3727C14.0012 17.5764 14.0002 17.7801 14.0002 17.9993ZM8.16882 17.0421C8.24175 17.0459 8.30252 17.0516 8.36329 17.0516C9.75867 17.0523 11.1541 17.0523 12.5491 17.0519C12.8047 17.0519 12.8054 17.0508 12.8054 16.7828C12.8057 13.3647 12.8047 9.94654 12.8081 6.52878C12.8084 6.34478 12.7496 6.22658 12.596 6.12877C11.1669 5.21831 9.74145 4.30116 8.31467 3.38647C8.27382 3.36009 8.22925 3.33933 8.16882 3.30661C8.16882 7.8906 8.16882 12.4542 8.16882 17.0421ZM6.49862 7.97574C6.49828 7.97574 6.49794 7.97574 6.49794 7.97574C6.49794 7.841 6.49828 7.70626 6.49794 7.57152C6.49727 7.27917 6.37775 7.17644 6.10731 7.24399C4.9459 7.53388 3.7855 7.82763 2.62376 8.11541C2.45292 8.15762 2.37459 8.26457 2.37189 8.43625C2.3675 8.68814 2.36446 8.94038 2.37257 9.19192C2.38033 9.4322 2.52112 9.53775 2.74395 9.4892C3.10047 9.41145 3.45768 9.33616 3.81454 9.25947C4.62719 9.08392 5.43984 8.90872 6.25215 8.73212C6.43481 8.69236 6.49591 8.61145 6.49828 8.41549C6.5003 8.26879 6.49862 8.12244 6.49862 7.97574ZM6.49794 5.71646C6.49828 5.71646 6.49828 5.71646 6.49862 5.71646C6.49862 5.55815 6.50132 5.39984 6.49794 5.24188C6.49355 5.03396 6.35175 4.92209 6.16066 4.97627C5.99286 5.02411 5.82675 5.07794 5.65997 5.1293C4.65893 5.43608 3.65788 5.7432 2.6565 6.04821C2.50458 6.0943 2.37932 6.16853 2.37392 6.34971C2.36615 6.61321 2.36278 6.87741 2.37594 7.14021C2.38641 7.34812 2.53125 7.44628 2.72842 7.39773C2.95192 7.34285 3.17407 7.28093 3.3969 7.22253C4.34359 6.97486 5.29028 6.7279 6.23696 6.48023C6.44426 6.42605 6.49625 6.35745 6.4976 6.13792C6.49862 5.9979 6.49794 5.85718 6.49794 5.71646ZM6.50976 10.2336C6.50942 10.2336 6.50908 10.2336 6.50874 10.2336C6.50874 10.1049 6.50874 9.97574 6.50874 9.84698C6.50874 9.54865 6.38889 9.44346 6.10563 9.49799C5.88482 9.54021 5.66503 9.58841 5.44457 9.63097C4.5178 9.80934 3.5907 9.9863 2.66359 10.1647C2.46845 10.2023 2.38202 10.2857 2.37493 10.4718C2.36548 10.7177 2.36379 10.9643 2.3729 11.2099C2.38101 11.4185 2.51943 11.5335 2.7112 11.505C3.88949 11.3309 5.06745 11.1557 6.2454 10.9798C6.42063 10.9538 6.50199 10.8598 6.50841 10.673C6.51381 10.527 6.50976 10.3803 6.50976 10.2336ZM6.50604 12.501C6.50368 12.501 6.50132 12.501 6.49929 12.501C6.49929 12.3254 6.50773 12.1492 6.49693 11.9747C6.4868 11.8143 6.3845 11.739 6.23426 11.7393C6.16167 11.7393 6.08841 11.7502 6.01616 11.7601C5.52627 11.8259 5.03672 11.8924 4.54684 11.9589C3.92325 12.0433 3.29967 12.126 2.67642 12.2132C2.44515 12.2456 2.38405 12.3279 2.38506 12.5773C2.38573 12.7824 2.38708 12.9875 2.3881 13.1926C2.38945 13.4772 2.49411 13.5659 2.76285 13.5402C3.61838 13.4582 4.47459 13.3837 5.33079 13.3059C5.62722 13.2792 5.92466 13.2574 6.22042 13.2232C6.43042 13.199 6.503 13.1061 6.50638 12.888C6.50739 12.7589 6.50604 12.6297 6.50604 12.501ZM6.19003 15.467C6.4213 15.4586 6.49828 15.3731 6.49862 15.1307C6.49929 14.8556 6.49929 14.5805 6.4976 14.305C6.49625 14.0711 6.40307 13.9775 6.17383 13.9933C5.68664 14.0268 3.34727 14.2122 2.66494 14.2713C2.45866 14.2892 2.37797 14.3831 2.37223 14.5995C2.36683 14.8042 2.36784 15.0093 2.36953 15.2141C2.37155 15.4931 2.47419 15.5926 2.73888 15.5905C3.09811 15.5877 5.4996 15.492 6.19003 15.467Z" fill="#1D4C90"/>
</svg>
