<svg width="16" height="16" viewBox="0 0 17 17" fill="none" xmlns="http://www.w3.org/2000/svg">
<path fill-rule="evenodd" clip-rule="evenodd" d="M4.80303 1.85455C4.85153 1.80593 4.90914 1.76736 4.97256 1.74104C5.03599 1.71472 5.10398 1.70117 5.17265 1.70117C5.24132 1.70117 5.30931 1.71472 5.37274 1.74104C5.43616 1.76736 5.49377 1.80593 5.54227 1.85455L11.807 8.11925C11.8556 8.16775 11.8942 8.22536 11.9205 8.28878C11.9468 8.35221 11.9603 8.4202 11.9603 8.48887C11.9603 8.55754 11.9468 8.62553 11.9205 8.68896C11.8942 8.75238 11.8556 8.80999 11.807 8.85849L5.54227 15.1232C5.44424 15.2212 5.31128 15.2763 5.17265 15.2763C5.03402 15.2763 4.90106 15.2212 4.80303 15.1232C4.705 15.0252 4.64993 14.8922 4.64993 14.7536C4.64993 14.6149 4.705 14.482 4.80303 14.384L10.6992 8.48887L4.80303 2.59378C4.75441 2.54529 4.71584 2.48768 4.68952 2.42425C4.6632 2.36083 4.64966 2.29283 4.64966 2.22416C4.64966 2.1555 4.6632 2.0875 4.68952 2.02408C4.71584 1.96065 4.75441 1.90304 4.80303 1.85455Z" fill="#3F3F3F"/>
</svg>
