<svg width="16" height="16" viewBox="0 0 18 18" fill="none" xmlns="http://www.w3.org/2000/svg">
<path fill-rule="evenodd" clip-rule="evenodd" d="M4.75811 2.11041C4.80661 2.06179 4.86422 2.02322 4.92764 1.9969C4.99107 1.97058 5.05906 1.95703 5.12773 1.95703C5.1964 1.95703 5.26439 1.97058 5.32782 1.9969C5.39124 2.02322 5.44885 2.06179 5.49735 2.11041L11.7621 8.37511C11.8107 8.42361 11.8492 8.48122 11.8756 8.54464C11.9019 8.60807 11.9154 8.67606 11.9154 8.74473C11.9154 8.8134 11.9019 8.88139 11.8756 8.94482C11.8492 9.00824 11.8107 9.06585 11.7621 9.11435L5.49735 15.3791C5.39932 15.4771 5.26636 15.5322 5.12773 15.5322C4.98909 15.5322 4.85614 15.4771 4.75811 15.3791C4.66008 15.281 4.60501 15.1481 4.60501 15.0094C4.60501 14.8708 4.66008 14.7378 4.75811 14.6398L10.6542 8.74473L4.75811 2.84964C4.70949 2.80115 4.67092 2.74354 4.6446 2.68011C4.61828 2.61669 4.60474 2.54869 4.60474 2.48002C4.60474 2.41135 4.61828 2.34336 4.6446 2.27994C4.67092 2.21651 4.70949 2.1589 4.75811 2.11041Z" fill="#3F3F3F"/>
<path fill-rule="evenodd" clip-rule="evenodd" d="M8.93462 2.11041C8.98312 2.06179 9.04073 2.02322 9.10415 1.9969C9.16758 1.97058 9.23557 1.95703 9.30424 1.95703C9.37291 1.95703 9.4409 1.97058 9.50433 1.9969C9.56775 2.02322 9.62536 2.06179 9.67386 2.11041L15.9386 8.37511C15.9872 8.42361 16.0258 8.48122 16.0521 8.54464C16.0784 8.60807 16.0919 8.67606 16.0919 8.74473C16.0919 8.8134 16.0784 8.88139 16.0521 8.94482C16.0258 9.00824 15.9872 9.06585 15.9386 9.11435L9.67386 15.3791C9.57583 15.4771 9.44288 15.5322 9.30424 15.5322C9.16561 15.5322 9.03265 15.4771 8.93462 15.3791C8.8366 15.281 8.78152 15.1481 8.78152 15.0094C8.78152 14.8708 8.8366 14.7378 8.93462 14.6398L14.8308 8.74473L8.93462 2.84964C8.88601 2.80115 8.84743 2.74354 8.82112 2.68011C8.7948 2.61669 8.78125 2.54869 8.78125 2.48002C8.78125 2.41135 8.7948 2.34336 8.82112 2.27994C8.84743 2.21651 8.88601 2.1589 8.93462 2.11041Z" fill="#3F3F3F"/>
</svg>
