<svg width="16" height="15" viewBox="0 0 16 15" fill="none" xmlns="http://www.w3.org/2000/svg">
  <g clip-path="url(#clip0)">
    <path fill-rule="evenodd" clip-rule="evenodd" d="M7.87439 14.0625C9.61487 14.0625 11.2841 13.3711 12.5148 12.1404C13.7455 10.9097 14.4369 9.24048 14.4369 7.5C14.4369 5.75952 13.7455 4.09032 12.5148 2.85961C11.2841 1.6289 9.61487 0.9375 7.87439 0.9375C6.13391 0.9375 4.46471 1.6289 3.234 2.85961C2.00329 4.09032 1.31189 5.75952 1.31189 7.5C1.31189 9.24048 2.00329 10.9097 3.234 12.1404C4.46471 13.3711 6.13391 14.0625 7.87439 14.0625ZM7.87439 15C9.86351 15 11.7712 14.2098 13.1777 12.8033C14.5842 11.3968 15.3744 9.48912 15.3744 7.5C15.3744 5.51088 14.5842 3.60322 13.1777 2.1967C11.7712 0.790176 9.86351 0 7.87439 0C5.88527 0 3.97761 0.790176 2.57109 2.1967C1.16457 3.60322 0.37439 5.51088 0.37439 7.5C0.37439 9.48912 1.16457 11.3968 2.57109 12.8033C3.97761 14.2098 5.88527 15 7.87439 15Z" fill="#F9C200"/>
    <path d="M10.027 12.6968C9.34453 12.9795 8.61308 13.125 7.87439 13.125C6.38255 13.125 4.95181 12.5324 3.89691 11.4775C2.84202 10.4226 2.24939 8.99184 2.24939 7.5C2.24939 6.00816 2.84202 4.57742 3.89691 3.52252C4.95181 2.46763 6.38255 1.875 7.87439 1.875C8.61308 1.875 9.34453 2.02049 10.027 2.30318C10.7094 2.58586 11.3295 3.00019 11.8519 3.52252C12.3742 4.04485 12.7885 4.66495 13.0712 5.34741C13.3539 6.02986 13.4994 6.76131 13.4994 7.5C13.4994 8.23869 13.3539 8.97014 13.0712 9.65259C12.7885 10.3351 12.3742 10.9551 11.8519 11.4775C11.3295 11.9998 10.7094 12.4141 10.027 12.6968Z" fill="#F9C200"/>
    <path d="M5.53064 8.91656C5.60189 9.81094 6.30876 10.5075 7.57626 10.59V11.25H8.13876V10.5853C9.45126 10.4934 10.2181 9.79219 10.2181 8.77406C10.2181 7.84875 9.63126 7.37156 8.5822 7.12406L8.13876 7.01906V5.22188C8.70126 5.28563 9.05939 5.59313 9.14564 6.01875H10.1319C10.0606 5.15719 9.32189 4.48312 8.13876 4.41V3.75H7.57626V4.42406C6.45595 4.53375 5.69189 5.20781 5.69189 6.16125C5.69189 7.005 6.26001 7.54125 7.20408 7.76156L7.57626 7.85344V9.76031C6.9997 9.67313 6.61814 9.35719 6.53189 8.91656H5.53064ZM7.57158 6.88594C7.01845 6.7575 6.71845 6.49594 6.71845 6.10219C6.71845 5.66156 7.04189 5.33156 7.57626 5.235V6.885H7.57158V6.88594ZM8.22033 8.00437C8.89252 8.16 9.20283 8.41219 9.20283 8.8575C9.20283 9.36562 8.81658 9.71438 8.13876 9.77813V7.98562L8.22033 8.00437Z" fill="white"/>
  </g>
  <defs>
    <clipPath id="clip0">
      <rect width="15" height="15" fill="white" transform="translate(0.37439)"/>
    </clipPath>
  </defs>
</svg>
