<svg width="16" height="22" viewBox="0 0 16 22" fill="none" xmlns="http://www.w3.org/2000/svg">
  <path d="M5.33301 16V13.3333H9.33301V16H5.33301Z" fill="#28a745"/>
  <path d="M9.724 0H2.66667C1.95942 0 1.28115 0.280952 0.781048 0.781049C0.280951 1.28115 0 1.95942 0 2.66667V18.6667C0 19.3739 0.280951 20.0522 0.781048 20.5523C1.28115 21.0524 1.95942 21.3333 2.66667 21.3333H13.3333C14.0406 21.3333 14.7189 21.0524 15.219 20.5523C15.719 20.0522 16 19.3739 16 18.6667V6.276C15.9999 5.92241 15.8594 5.58332 15.6093 5.33333L10.6667 0.390667C10.4167 0.140601 10.0776 7.55165e-05 9.724 0V0ZM10 4.66667V2L14 6H11.3333C10.9797 6 10.6406 5.85952 10.3905 5.60948C10.1405 5.35943 10 5.02029 10 4.66667ZM1.33333 12H14.6667V13.3333H10.6667V16H14.6667V17.3333H10.6667V20H9.33333V17.3333H5.33333V20H4V17.3333H1.33333V16H4V13.3333H1.33333V12Z" fill="#29B354"/>
  <path d="M5.87678 9.28097C5.8444 9.72859 5.67868 10.081 5.37964 10.3381C5.08249 10.5953 4.69011 10.7238 4.20249 10.7238C3.66916 10.7238 3.24916 10.5448 2.94249 10.1867C2.63773 9.82668 2.48535 9.33335 2.48535 8.70668V8.4524C2.48535 8.0524 2.55583 7.70002 2.69678 7.39525C2.83773 7.09049 3.03868 6.85716 3.29964 6.69525C3.56249 6.53144 3.86726 6.44954 4.21392 6.44954C4.69392 6.44954 5.08059 6.57811 5.37392 6.83525C5.66726 7.0924 5.83678 7.45335 5.88249 7.91811H5.02535C5.0044 7.64954 4.92916 7.45525 4.79964 7.33525C4.67202 7.21335 4.47678 7.1524 4.21392 7.1524C3.92821 7.1524 3.71392 7.25525 3.57107 7.46097C3.43011 7.66478 3.35773 7.98192 3.35392 8.4124V8.72668C3.35392 9.17621 3.42154 9.50478 3.55678 9.7124C3.69392 9.92002 3.90916 10.0238 4.20249 10.0238C4.46726 10.0238 4.6644 9.96382 4.79392 9.84382C4.92535 9.72192 5.00059 9.5343 5.01964 9.28097H5.87678Z" fill="white"/>
  <path d="M8.59678 9.57525C8.59678 9.41335 8.53964 9.28954 8.42535 9.20382C8.31107 9.11621 8.10535 9.02478 7.80821 8.92954C7.51107 8.8324 7.27583 8.73716 7.10249 8.64383C6.63011 8.38859 6.39392 8.04478 6.39392 7.6124C6.39392 7.38763 6.45678 7.18763 6.58249 7.0124C6.71011 6.83525 6.89202 6.69716 7.12821 6.59811C7.3663 6.49906 7.63297 6.44954 7.92821 6.44954C8.22535 6.44954 8.49011 6.50382 8.72249 6.6124C8.95488 6.71906 9.13488 6.87049 9.2625 7.06668C9.39202 7.26287 9.45678 7.48573 9.45678 7.73525H8.59964C8.59964 7.54478 8.53964 7.39716 8.41964 7.2924C8.29964 7.18573 8.13107 7.1324 7.91392 7.1324C7.7044 7.1324 7.54154 7.17716 7.42535 7.26668C7.30916 7.3543 7.25107 7.47049 7.25107 7.61525C7.25107 7.75049 7.31869 7.86382 7.45392 7.95525C7.59107 8.04668 7.79202 8.1324 8.05678 8.2124C8.5444 8.35906 8.89964 8.54097 9.12249 8.75811C9.34535 8.97525 9.45678 9.24573 9.45678 9.56954C9.45678 9.92954 9.32059 10.2124 9.04821 10.4181C8.77583 10.6219 8.40916 10.7238 7.94821 10.7238C7.62821 10.7238 7.33678 10.6657 7.07392 10.5495C6.81107 10.4314 6.61011 10.2705 6.47107 10.0667C6.33392 9.86287 6.26535 9.62668 6.26535 9.35811H7.12535C7.12535 9.81716 7.39964 10.0467 7.94821 10.0467C8.15202 10.0467 8.31107 10.0057 8.42535 9.92383C8.53964 9.84002 8.59678 9.72382 8.59678 9.57525Z" fill="white"/>
  <path d="M11.5768 9.63525L12.5196 6.50668H13.4739L12.0254 10.6667H11.1311L9.68821 6.50668H10.6396L11.5768 9.63525Z" fill="white"/>
</svg>
