<svg width="16" height="22" viewBox="0 0 16 22" fill="none" xmlns="http://www.w3.org/2000/svg">
  <path d="M5.3335 16.5002V13.8335H9.3335V16.5002H5.3335Z" fill="#1D4C90"/>
  <path d="M9.724 0.5H2.66667C1.95942 0.5 1.28115 0.780952 0.781048 1.28105C0.280951 1.78115 0 2.45942 0 3.16667V19.1667C0 19.8739 0.280951 20.5522 0.781048 21.0523C1.28115 21.5524 1.95942 21.8333 2.66667 21.8333H13.3333C14.0406 21.8333 14.7189 21.5524 15.219 21.0523C15.719 20.5522 16 19.8739 16 19.1667V6.776C15.9999 6.42241 15.8594 6.08332 15.6093 5.83333L10.6667 0.890667C10.4167 0.640601 10.0776 0.500076 9.724 0.5V0.5ZM10 5.16667V2.5L14 6.5H11.3333C10.9797 6.5 10.6406 6.35952 10.3905 6.10948C10.1405 5.85943 10 5.52029 10 5.16667ZM1.33333 12.5H14.6667V13.8333H10.6667V16.5H14.6667V17.8333H10.6667V20.5H9.33333V17.8333H5.33333V20.5H4V17.8333H1.33333V16.5H4V13.8333H1.33333V12.5Z" fill="#1D4C90"/>
  <path d="M5.87727 9.78114C5.84489 10.2288 5.67917 10.5811 5.38013 10.8383C5.08298 11.0954 4.6906 11.224 4.20298 11.224C3.66965 11.224 3.24965 11.0449 2.94298 10.6869C2.63822 10.3268 2.48584 9.83352 2.48584 9.20685V8.95256C2.48584 8.55256 2.55632 8.20018 2.69727 7.89542C2.83822 7.59066 3.03917 7.35733 3.30013 7.19542C3.56298 7.03161 3.86774 6.94971 4.21441 6.94971C4.69441 6.94971 5.08108 7.07828 5.37441 7.33542C5.66774 7.59256 5.83727 7.95352 5.88298 8.41828H5.02584C5.00489 8.14971 4.92965 7.95542 4.80013 7.83542C4.67251 7.71352 4.47727 7.65256 4.21441 7.65256C3.9287 7.65256 3.71441 7.75542 3.57155 7.96114C3.4306 8.16495 3.35822 8.48209 3.35441 8.91256V9.22685C3.35441 9.67637 3.42203 10.0049 3.55727 10.2126C3.69441 10.4202 3.90965 10.524 4.20298 10.524C4.46774 10.524 4.66489 10.464 4.79441 10.344C4.92584 10.2221 5.00108 10.0345 5.02013 9.78114H5.87727Z" fill="white"/>
  <path d="M8.59727 10.0754C8.59727 9.91352 8.54013 9.78971 8.42584 9.70399C8.31155 9.61637 8.10584 9.52495 7.8087 9.42971C7.51155 9.33256 7.27632 9.23733 7.10298 9.14399C6.6306 8.88875 6.39441 8.54495 6.39441 8.11256C6.39441 7.8878 6.45727 7.6878 6.58298 7.51256C6.7106 7.33542 6.89251 7.19733 7.1287 7.09828C7.36679 6.99923 7.63346 6.94971 7.9287 6.94971C8.22584 6.94971 8.4906 7.00399 8.72298 7.11256C8.95536 7.21923 9.13536 7.37066 9.26298 7.56685C9.39251 7.76304 9.45727 7.9859 9.45727 8.23542H8.60013C8.60013 8.04495 8.54013 7.89733 8.42013 7.79256C8.30013 7.6859 8.13155 7.63256 7.91441 7.63256C7.70489 7.63256 7.54203 7.67733 7.42584 7.76685C7.30965 7.85447 7.25155 7.97066 7.25155 8.11542C7.25155 8.25066 7.31917 8.36399 7.45441 8.45542C7.59155 8.54685 7.79251 8.63256 8.05727 8.71256C8.54489 8.85923 8.90013 9.04114 9.12298 9.25828C9.34584 9.47542 9.45727 9.7459 9.45727 10.0697C9.45727 10.4297 9.32108 10.7126 9.0487 10.9183C8.77632 11.1221 8.40965 11.224 7.9487 11.224C7.6287 11.224 7.33727 11.1659 7.07441 11.0497C6.81155 10.9316 6.6106 10.7707 6.47155 10.5668C6.33441 10.363 6.26584 10.1269 6.26584 9.85828H7.12584C7.12584 10.3173 7.40013 10.5468 7.9487 10.5468C8.15251 10.5468 8.31155 10.5059 8.42584 10.424C8.54013 10.3402 8.59727 10.224 8.59727 10.0754Z" fill="white"/>
  <path d="M11.5773 10.1354L12.5201 7.00685H13.4744L12.0258 11.1669H11.1316L9.6887 7.00685H10.6401L11.5773 10.1354Z" fill="white"/>
</svg>
