<svg width="14" height="17" viewBox="0 0 14 17" fill="none" xmlns="http://www.w3.org/2000/svg">
  <path d="M11.6107 7.06332V4.41064H1V16.1582H11.6107V14.2634" stroke="white" stroke-miterlimit="10"/>
  <path d="M1.75781 3.27353V2.51562H10.8527V3.27353" stroke="white" stroke-miterlimit="10"/>
  <path d="M2.51514 1.63159V1H10.0942V1.63159" stroke="white" stroke-miterlimit="10"/>
  <path d="M8.8955 12.6841C10.2908 12.6841 11.4219 11.553 11.4219 10.1577C11.4219 8.76244 10.2908 7.63135 8.8955 7.63135C7.50023 7.63135 6.36914 8.76244 6.36914 10.1577C6.36914 11.553 7.50023 12.6841 8.8955 12.6841Z" stroke="white" stroke-miterlimit="10"/>
  <path d="M10.7896 11.7363L13.0001 13.9469" stroke="white" stroke-miterlimit="10"/>
  <path d="M3.27393 6.30518H9.33718" stroke="white" stroke-miterlimit="10"/>
  <path d="M3.27393 9.71582L5.16869 9.71582" stroke="white" stroke-miterlimit="10"/>
  <path d="M3.27393 13.1265L6.30555 13.1265" stroke="white" stroke-miterlimit="10"/>
</svg>
