<svg width="24" height="24" viewBox="0 0 24 24" fill="none" xmlns="http://www.w3.org/2000/svg">
  <path d="M18.1498 2.5112L16.7886 1H6.06912C5.29574 1 4.99683 1.57337 4.99683 2.02117V6.05472H6.50025V2.83677C6.50025 2.66565 6.6447 2.5212 6.81138 2.5212H14.4818C14.6507 2.5212 14.7352 2.5512 14.7352 2.69009V8.04595H20.1943C20.4088 8.04595 20.4921 8.15706 20.4921 8.31929V21.3978C20.4921 21.6711 20.381 21.7123 20.2143 21.7123H6.81138C6.72873 21.7102 6.65009 21.6762 6.59205 21.6173C6.534 21.5585 6.50109 21.4794 6.50025 21.3967V20.2011H5.00683V22.0845C4.98683 22.7512 5.34241 23.2235 6.06912 23.2235H20.9566C21.7344 23.2235 22 22.6601 22 22.1467V6.76365L21.6111 6.34141L18.1487 2.51231L18.1498 2.5112ZM16.263 2.68898L16.693 3.17123L19.5776 6.34141L19.7365 6.53364H16.7886C16.5664 6.53364 16.4252 6.49697 16.3664 6.42252C16.3075 6.3503 16.273 6.23362 16.263 6.07473V2.68898ZM15.0518 12.8529H20.1377V14.3352H15.0507V12.8529H15.0518ZM15.0518 9.89049H20.1377V11.3717H15.0507V9.88938L15.0518 9.89049ZM15.0518 15.8164H20.1377V17.2987H15.0507V15.8164H15.0518ZM2 7.25146V19.1043H13.6284V7.25146H2ZM7.81477 14.1452L7.10362 15.2319H7.81477V16.5564H4.24012L6.8336 12.6562L4.5357 9.14934H6.4558L7.81588 11.1895L9.17484 9.14934H11.0938L8.79149 12.6562L11.3883 16.5564H9.39597L7.81477 14.1452Z" fill="#1D4C90"/>
</svg>