<svg width="32" height="32" viewBox="0 0 32 32" fill="none" xmlns="http://www.w3.org/2000/svg">
<path d="M14.9393 16.3536L15.2929 16L14.9393 15.6464L10.6967 11.4038C10.5014 11.2085 10.5014 10.892 10.6967 10.6967C10.8919 10.5014 11.2085 10.5014 11.4038 10.6967L15.6464 14.9393L16 15.2929L16.3535 14.9393L20.5962 10.6967C20.7914 10.5014 21.108 10.5014 21.3033 10.6967C21.4986 10.892 21.4986 11.2085 21.3033 11.4038L17.0606 15.6464L16.7071 16L17.0606 16.3536L21.3033 20.5962C21.4986 20.7915 21.4986 21.108 21.3033 21.3033C21.108 21.4986 20.7914 21.4986 20.5962 21.3033L16.3535 17.0607L16 16.7071L15.6464 17.0607L11.4038 21.3033C11.2085 21.4986 10.8919 21.4986 10.6967 21.3033C10.5014 21.108 10.5014 20.7915 10.6967 20.5962L14.9393 16.3536Z" fill="#F5F6F6" stroke="#F5F6F6"/>
</svg>
