<svg width="33" height="32" viewBox="0 0 33 32" fill="none" xmlns="http://www.w3.org/2000/svg">
  <path d="M29.5498 3.4375H31.6831V14.3999H29.5498V3.4375Z" fill="#78AFFF"/>
  <path d="M24.4867 24.533C24.4867 24.6594 24.478 24.7837 24.4675 24.9074L25.2829 25.6103C25.2002 25.9974 25.0736 26.3739 24.9056 26.7324L23.8278 26.831C23.6961 27.0448 23.5464 27.2471 23.3806 27.4356L23.6168 28.4669C23.3837 28.8078 23.0377 29.0555 22.6399 29.1661L21.7134 28.629C21.4769 28.7253 21.2327 28.8015 20.9834 28.8571L20.5533 29.8317H19.346L18.9159 28.8571C18.6666 28.8015 18.4224 28.7252 18.1859 28.629L17.2594 29.166C16.909 28.9697 16.5814 28.7352 16.2825 28.4668L16.5187 27.4356C16.3529 27.247 16.2032 27.0447 16.0715 26.8309L14.9937 26.7323C14.8257 26.3738 14.6992 25.9974 14.6164 25.6102L15.4319 24.9074C15.4213 24.7837 15.4126 24.6594 15.4126 24.533H12.4831V20.2665H9.28319V8H0.75V31.9996H26.3496V24.533H24.4867Z" fill="#78A7F9"/>
  <path d="M20.5391 9.0668H19.417V2.13359C19.4208 1.9885 19.482 1.85083 19.5872 1.75084C19.6924 1.65084 19.833 1.59668 19.978 1.60026H29.0168V2.66691H20.5391V9.0668Z" fill="#6C747F"/>
  <path d="M24.4668 13.4916L25.2822 12.7888C25.1995 12.4017 25.073 12.0252 24.905 11.6668L23.8272 11.5682C23.6954 11.3544 23.5458 11.1521 23.3799 10.9635L23.6162 9.93226C23.3173 9.6639 22.9896 9.42941 22.6392 9.23307L21.7128 9.77013C21.4762 9.67387 21.232 9.59759 20.9828 9.54211L20.5526 8.56738H19.3453L18.9152 9.54207C18.666 9.59757 18.4218 9.67386 18.1853 9.77013L17.2588 9.23303C16.9084 9.42937 16.5807 9.66386 16.2819 9.93222L16.5181 10.9634C16.3522 11.152 16.2026 11.3543 16.0708 11.5681L14.993 11.6667C14.825 12.0252 14.6985 12.4016 14.6157 12.7887L15.4312 13.4916V14.2405L14.6157 14.9433C14.6985 15.3304 14.825 15.7068 14.993 16.0653L16.0708 16.1639C16.2025 16.3777 16.3521 16.58 16.518 16.7685L16.2818 17.7998C16.5807 18.0682 16.9083 18.3027 17.2587 18.499L18.1852 17.9619C18.4217 18.0582 18.6659 18.1345 18.9152 18.19L19.3453 19.1647H20.5526L20.9828 18.19C21.232 18.1345 21.4762 18.0582 21.7127 17.962L22.6392 18.499C23.0371 18.3884 23.3831 18.1408 23.6161 17.7998L23.3798 16.7686C23.5457 16.5801 23.6953 16.3778 23.8271 16.164L24.9049 16.0654C25.0729 15.7069 25.1995 15.3305 25.2822 14.9433L24.4668 14.2405V13.4916ZM19.949 15.9994C19.527 15.9994 19.1146 15.8742 18.7638 15.6398C18.4129 15.4054 18.1395 15.0722 17.9781 14.6824C17.8166 14.2926 17.7743 13.8637 17.8567 13.4499C17.939 13.0361 18.1421 12.6559 18.4405 12.3576C18.7388 12.0592 19.119 11.8561 19.5328 11.7738C19.9466 11.6914 20.3755 11.7337 20.7653 11.8952C21.1552 12.0566 21.4883 12.33 21.7227 12.6809C21.9571 13.0317 22.0823 13.4441 22.0823 13.8661C22.0823 14.4318 21.8575 14.9745 21.4574 15.3745C21.0574 15.7746 20.5147 15.9994 19.949 15.9994Z" fill="#FFD700"/>
  <path d="M29.0161 13.8667H32.2161V31.9997H29.0161V13.8667Z" fill="#545FC6"/>
  <path d="M30.6167 4.26659C31.7949 4.26659 32.75 3.31148 32.75 2.1333C32.75 0.955109 31.7949 0 30.6167 0C29.4385 0 28.4834 0.955109 28.4834 2.1333C28.4834 3.31148 29.4385 4.26659 30.6167 4.26659Z" fill="#515BBC"/>
  <path d="M30.6158 2.40002C30.7631 2.40002 30.8824 2.28063 30.8824 2.13336C30.8824 1.98609 30.7631 1.8667 30.6158 1.8667C30.4685 1.8667 30.3491 1.98609 30.3491 2.13336C30.3491 2.28063 30.4685 2.40002 30.6158 2.40002Z" fill="#5358A1"/>
  <path d="M31.3787 16.984L29.0161 18.5589V19.9541L31.4262 22.3642L29.0161 24.3721V25.7609L31.383 27.7331L29.0161 29.7054V30.3997L29.3574 30.8093L32.2161 28.4275V27.0387L29.8492 25.0665L32.2161 23.0943V21.6458L29.8534 19.2826L32.2161 17.7077V16.3125L29.7702 13.8667H29.0161V14.6208L31.3787 16.984Z" fill="#A2A5AA"/>
  <path d="M11.417 20.2661H12.4836V24.5327H11.417V20.2661Z" fill="#A4C9FF"/>
  <path d="M8.21631 8H9.28296V20.2665H8.21631V8Z" fill="#A4C9FF"/>
  <path d="M4.48389 10.6665H5.55053V11.7332H4.48389V10.6665Z" fill="#004DAA"/>
  <path d="M2.34961 10.6665H3.41626V11.7332H2.34961V10.6665Z" fill="#004DAA"/>
  <path d="M6.61621 10.6665H7.68286V11.7332H6.61621V10.6665Z" fill="#004DAA"/>
  <path d="M2.34961 12.8003H3.41626V13.8669H2.34961V12.8003Z" fill="#004DAA"/>
  <path d="M4.48389 12.8003H5.55053V13.8669H4.48389V12.8003Z" fill="#004DAA"/>
  <path d="M6.61621 12.8003H7.68286V13.8669H6.61621V12.8003Z" fill="#004DAA"/>
  <path d="M2.34961 14.9331H3.41626V15.9998H2.34961V14.9331Z" fill="#004DAA"/>
  <path d="M4.48389 14.9331H5.55053V15.9998H4.48389V14.9331Z" fill="#004DAA"/>
  <path d="M6.61621 14.9331H7.68286V15.9998H6.61621V14.9331Z" fill="#004DAA"/>
  <path d="M2.34961 17.0669H3.41626V18.1335H2.34961V17.0669Z" fill="#004DAA"/>
  <path d="M4.48389 17.0669H5.55053V18.1335H4.48389V17.0669Z" fill="#004DAA"/>
  <path d="M6.61621 17.0669H7.68286V18.1335H6.61621V17.0669Z" fill="#004DAA"/>
  <path d="M2.34961 19.1997H3.41626V20.2664H2.34961V19.1997Z" fill="#004DAA"/>
  <path d="M4.48389 19.1997H5.55053V20.2664H4.48389V19.1997Z" fill="#004DAA"/>
  <path d="M6.61621 19.1997H7.68286V20.2664H6.61621V19.1997Z" fill="#004DAA"/>
  <path d="M2.34961 21.333H3.41626V22.3997H2.34961V21.333Z" fill="#004DAA"/>
  <path d="M4.48389 21.333H5.55053V22.3997H4.48389V21.333Z" fill="#004DAA"/>
  <path d="M6.61621 21.333H7.68286V22.3997H6.61621V21.333Z" fill="#004DAA"/>
  <path d="M2.34961 23.4668H3.41626V24.5334H2.34961V23.4668Z" fill="#004DAA"/>
  <path d="M4.48389 23.4668H5.55053V24.5334H4.48389V23.4668Z" fill="#004DAA"/>
  <path d="M6.61621 23.4668H7.68286V24.5334H6.61621V23.4668Z" fill="#004DAA"/>
  <path d="M2.34961 25.5996H3.41626V26.6663H2.34961V25.5996Z" fill="#004DAA"/>
  <path d="M4.48389 25.5996H5.55053V26.6663H4.48389V25.5996Z" fill="#004DAA"/>
  <path d="M6.61621 25.5996H7.68286V26.6663H6.61621V25.5996Z" fill="#004DAA"/>
  <path d="M30.6165 3.1997C31.2055 3.1997 31.6831 2.72215 31.6831 2.13305C31.6831 1.54396 31.2055 1.06641 30.6165 1.06641C30.0274 1.06641 29.5498 1.54396 29.5498 2.13305C29.5498 2.72215 30.0274 3.1997 30.6165 3.1997Z" fill="#848E99"/>
  <path d="M19.9499 10.6665C19.3171 10.6665 18.6984 10.8542 18.1722 11.2058C17.6459 11.5574 17.2358 12.0572 16.9936 12.6419C16.7514 13.2266 16.688 13.87 16.8115 14.4907C16.935 15.1115 17.2397 15.6816 17.6872 16.1292C18.1348 16.5767 18.7049 16.8814 19.3257 17.0049C19.9464 17.1284 20.5898 17.065 21.1745 16.8228C21.7592 16.5806 22.259 16.1705 22.6106 15.6442C22.9622 15.118 23.1499 14.4993 23.1499 13.8664C23.1499 13.0178 22.8128 12.2039 22.2126 11.6037C21.6125 11.0036 20.7986 10.6665 19.9499 10.6665ZM19.9499 15.9997C19.528 15.9997 19.1156 15.8746 18.7647 15.6402C18.4139 15.4058 18.1405 15.0726 17.979 14.6828C17.8176 14.293 17.7753 13.8641 17.8576 13.4503C17.94 13.0364 18.1431 12.6563 18.4415 12.358C18.7398 12.0596 19.1199 11.8565 19.5338 11.7741C19.9476 11.6918 20.3765 11.7341 20.7663 11.8955C21.1561 12.057 21.4893 12.3304 21.7237 12.6813C21.9581 13.0321 22.0832 13.4445 22.0832 13.8664C22.0832 14.4322 21.8585 14.9748 21.4584 15.3749C21.0583 15.775 20.5157 15.9997 19.9499 15.9997Z" fill="#FFBC00"/>
</svg>
