<svg width="33" height="27" viewBox="0 0 33 27" fill="none" xmlns="http://www.w3.org/2000/svg">
  <path d="M15.7528 16.3388C15.7528 16.2437 15.7615 16.1571 15.7615 16.0619C15.7442 15.6466 15.9345 15.3091 16.2374 15.0928C15.2855 13.6304 14.4981 11.3892 14.4981 11.3892H11.4521C11.4521 11.3892 10.258 14.8591 9.05518 15.9667L12.9059 17.1869V17.2474L13.0011 17.2215L13.0963 17.2474V17.1869L15.7528 16.3388Z" fill="#F9B54C"/>
  <path d="M16.107 26.0651L17.7943 23.2961L16.7646 15.7937L12.9658 16.1225L9.45258 15.7764L9.2622 15.8023C9.2622 15.8023 7.61808 19.1858 7.48828 19.5146C7.36713 19.8088 8.53533 24.8623 8.743 26.0824H16.107V26.0651Z" fill="#E6E9EE"/>
  <path d="M13.5973 18.1997H12.3426L11.5205 16.1143H14.4194L13.5973 18.1997Z" fill="#F1543F"/>
  <path d="M13.5973 18.1997H12.3426L11.5205 23.5474L12.9656 25.4685L14.4194 23.5474L13.5973 18.1997Z" fill="#FF7058"/>
  <path d="M15.8041 14.3496C15.8041 14.3496 17.9415 16.1668 14.7571 18.1657L12.9658 16.1495L15.8041 14.3496Z" fill="white"/>
  <path d="M10.136 14.3491C10.136 14.3491 7.99869 16.1663 11.1831 18.1652L12.9743 16.149L10.136 14.3491Z" fill="white"/>
  <path d="M5.42019 26.0652C5.42885 26.0393 5.42885 26.0133 5.4375 25.9874C5.67979 24.9922 5.86151 24.3865 5.86151 24.3865L3.64627 19.3243C3.63762 19.3157 3.63762 19.2984 3.62896 19.2897L2.90209 17.6369C2.89344 17.6283 2.89344 17.6196 2.89344 17.6196C1.66467 20.3541 0.955099 23.2443 0.583008 26.0652H5.42019Z" fill="#324A5E"/>
  <path d="M3.62873 19.2898C3.62873 19.2985 3.63738 19.3158 3.64604 19.3244C4.19119 20.7436 4.92672 23.0107 5.44592 25.9875C5.44592 26.0134 5.45457 26.0394 5.45457 26.0654H11.5378L11.1052 25.4769L8.85531 18.6754L9.27933 15.7852L9.78987 14.7642L9.78122 14.7728C9.69468 14.8593 8.88127 15.6728 7.40156 16.4083C6.27664 16.9707 4.77096 17.4899 2.90186 17.6111C2.90186 17.6111 2.90186 17.6197 2.91051 17.6284C2.95378 17.7322 3.24799 18.3034 3.62873 19.2898Z" fill="#2B3B4E"/>
  <path d="M10.9151 26.0655H12.1957C9.08056 19.3765 9.77283 14.7729 9.77283 14.7729L7.30664 16.469L8.83827 16.7632L7.30664 17.4035C8.41426 21.5225 9.74687 24.257 10.9151 26.0655Z" fill="#324A5E"/>
  <path d="M20.607 26.0652H25.4442C25.0721 23.2443 24.3625 20.3541 23.1337 17.6196C23.1337 17.6196 23.1337 17.6283 23.1251 17.6369L22.4155 19.2724C22.4069 19.2811 22.4069 19.2811 22.4069 19.2897L20.1743 24.3951C20.1743 24.3951 20.356 25.0009 20.5983 25.996C20.5983 26.0133 20.607 26.0393 20.607 26.0652Z" fill="#2B3B4E"/>
  <path d="M14.938 25.4771L14.5054 26.0655H20.58C20.58 26.0395 20.5886 26.0136 20.5886 25.9963C21.1078 22.9936 21.852 20.7091 22.4058 19.29C22.4058 19.2813 22.4058 19.2727 22.4145 19.2727C22.7866 18.3035 23.0721 17.741 23.124 17.6372C23.1327 17.6285 23.1327 17.6199 23.1327 17.6199C21.2636 17.4987 19.7493 16.9709 18.6243 16.4084C17.1533 15.6729 16.3399 14.8595 16.2533 14.7816L16.2447 14.7729L16.7552 15.794L17.1792 18.6842L17.1619 18.7448L14.938 25.4771Z" fill="#324A5E"/>
  <path d="M13.8394 26.0655H15.1114C16.2882 24.2656 17.6208 21.5225 18.7198 17.4036L17.1882 16.7632L18.7198 16.469L16.2536 14.773C16.2536 14.7643 16.9545 19.3765 13.8394 26.0655Z" fill="#2B3B4E"/>
  <path d="M17.7168 8.10946C17.6562 8.84499 17.3879 9.44207 17.1284 9.44207C16.8688 9.44207 16.6957 8.84499 16.7563 8.10946C16.8168 7.37393 17.0851 6.77686 17.3447 6.77686C17.6043 6.77686 17.7773 7.37393 17.7168 8.10946Z" fill="#F9B54C"/>
  <path d="M8.31918 8.10946C8.37976 8.84499 8.64801 9.44207 8.90761 9.44207C9.17586 9.44207 9.34027 8.84499 9.2797 8.10946C9.21913 7.37393 8.95087 6.77686 8.69128 6.77686C8.42302 6.77686 8.25861 7.37393 8.31918 8.10946Z" fill="#F9B54C"/>
  <path d="M16.2978 3.93049C16.0555 3.39398 15.493 3.04785 14.8786 3.04785H13.0441H11.2096C10.5952 3.04785 10.0328 3.39398 9.79049 3.93049C9.19341 5.22848 9.07227 7.48699 9.07227 9.01862C9.07227 10.0311 9.46166 11.0175 10.1712 11.7704L10.7423 12.3761C11.2702 12.9386 11.9538 13.3539 12.7153 13.5702L13.0355 13.6654L13.3556 13.5702C14.1171 13.3539 14.8007 12.9386 15.3286 12.3761L15.8997 11.7704C16.6093 11.0175 17.0073 10.0311 16.9987 9.01862C17.016 7.48699 16.8948 5.22848 16.2978 3.93049Z" fill="#FFD05B"/>
  <path d="M17.4831 2.65828C17.4225 2.44195 17.3274 2.23427 17.2668 2.01794C17.2235 1.87083 17.1976 1.72373 17.1197 1.58527C16.9639 1.29972 16.6178 1.15261 16.2976 1.18722C15.9774 1.22184 15.6832 1.40356 15.4582 1.63719C15.5102 1.33433 15.5188 0.996851 15.3717 0.728599C15.1987 0.417081 14.8525 0.252668 14.515 0.183442C14.1689 0.122869 13.8228 0.140175 13.4766 0.105562C13.0959 0.0709492 12.7065 -0.0328901 12.3258 0.0103763C12.0056 0.0449895 11.72 0.218056 11.4085 0.287282C8.14622 1.04012 8.39717 4.91679 8.44909 5.94653C8.45774 6.22343 8.4837 6.50034 8.57023 6.75994C8.68273 7.09742 8.89906 7.38298 9.1327 7.65988C9.19327 7.46951 9.18462 7.26183 9.22788 7.07146C9.28846 6.7859 9.32307 6.50034 9.40095 6.21478C9.47018 5.94653 9.79035 4.50143 9.92015 4.21587C10.0932 3.82647 10.4134 3.47169 10.8201 3.36785C11.6075 3.16017 12.3863 3.86974 13.1911 3.73994C13.3382 3.71398 13.4853 3.66206 13.6324 3.61014C13.7968 3.54957 13.9699 3.49765 14.1343 3.45438C14.515 3.35054 14.9131 3.26401 15.2852 3.3765C15.7005 3.49765 16.0294 3.82648 16.237 4.20722C16.4447 4.58796 16.5486 5.02063 16.6437 5.44464C16.6957 5.69558 16.7476 5.95518 16.7216 6.21478C16.7216 6.23209 16.713 6.24939 16.713 6.27535C16.7303 6.48303 16.7043 6.69071 16.7389 6.89839C16.7649 7.05415 16.8168 7.20991 16.8514 7.37432C16.8687 7.44355 16.8774 7.52143 16.8947 7.59065C17.1716 7.08011 17.3706 6.5263 17.4745 5.95518C17.561 5.48791 17.5783 5.01197 17.6043 4.5447C17.6302 3.90435 17.6648 3.25536 17.4831 2.65828Z" fill="#11110F"/>
  <path d="M27.036 1.61963C23.9728 1.61963 21.4893 3.54931 21.4893 5.93762C21.4893 6.66449 21.7229 7.3481 22.1296 7.95383L20.4941 11.069L24.3016 9.69314C25.1063 10.0479 26.0409 10.2556 27.036 10.2556C30.0993 10.2556 32.5828 8.32593 32.5828 5.93762C32.5828 3.55797 30.0993 1.61963 27.036 1.61963Z" fill="#9AD3FA"/>
</svg>
