<svg width="33" height="27" viewBox="0 0 33 27" fill="none" xmlns="http://www.w3.org/2000/svg">
  <path d="M22.532 6.76555H20.6475V1.88456H12.1858V6.76555H10.3013V0.942278C10.3013 0.424025 10.7253 0 11.2435 0H21.5898C22.108 0 22.532 0.424025 22.532 0.942278V6.76555Z" fill="#4088C5"/>
  <path d="M0.416504 7.92432V25.1115C0.416504 25.8936 1.05725 26.5437 1.84877 26.5437H30.9746C31.7661 26.5343 32.4068 25.8936 32.4068 25.1115V7.92432H0.416504Z" fill="#2B3B4E"/>
  <path d="M32.4166 13.2486C21.9667 16.2827 10.8761 16.2827 0.42627 13.2486C0.42627 10.4595 0.42627 8.92355 0.42627 6.13441C0.42627 5.35232 1.06702 4.70215 1.85853 4.70215C11.564 4.70215 21.2695 4.70215 30.9843 4.70215C31.7758 4.71157 32.4166 5.35232 32.4166 6.13441C32.4166 8.91413 32.4166 10.45 32.4166 13.2486Z" fill="#324A5E"/>
  <path d="M18.4317 18.5345H14.3987C14.3328 18.5345 14.2856 18.4874 14.2856 18.4215V13.531C14.2856 13.4651 14.3328 13.418 14.3987 13.418H18.4317C18.4976 13.418 18.5447 13.4651 18.5447 13.531V18.4215C18.5447 18.4874 18.4976 18.5345 18.4317 18.5345Z" fill="#E6E9EE"/>
  <path d="M14.5981 16.0562V18.0915C14.5981 18.1669 14.6547 18.2234 14.7301 18.2234H18.0846C18.16 18.2234 18.2165 18.1669 18.2165 18.0915V16.0562H14.5981Z" fill="#ACB3BA"/>
</svg>
