<svg width="33" height="31" viewBox="0 0 33 31" fill="none" xmlns="http://www.w3.org/2000/svg">
  <path d="M32.8708 5.49859C32.7356 5.04789 32.33 4.68732 31.8342 4.68732H1.99756C1.50178 4.68732 1.09615 5.04789 0.960938 5.49859C1.05108 4.91268 1.41164 4.37183 1.90742 4.01127L7.13558 0.450704C7.54122 0.180282 8.08206 0 8.57784 0H25.299C25.7947 0 26.2905 0.135211 26.7412 0.450704L31.9243 4.05634C32.4652 4.37183 32.7807 4.91268 32.8708 5.49859Z" fill="#FE9923"/>
  <path d="M32.9165 29.5208V5.7687C32.9165 5.18279 32.4207 4.68701 31.8348 4.68701H1.99819C1.41228 4.68701 0.916504 5.18279 0.916504 5.7687V29.5208C0.916504 30.1067 1.41228 30.6025 1.99819 30.6025H31.8348C32.4207 30.6025 32.9165 30.1067 32.9165 29.5208Z" fill="#FFB44E"/>
  <path d="M19.3058 4.68701H14.5283V8.33772H19.3058V4.68701Z" fill="#FF7058"/>
  <path d="M15.5649 0.0454102L14.5283 4.68766H19.3058L18.2692 0.0454102H15.5649Z" fill="#F1543F"/>
  <path d="M10.561 18.5688H4.43145C3.80046 18.5688 3.30469 19.0646 3.30469 19.6956V25.8252C3.30469 26.4562 3.80046 26.9519 4.43145 26.9519H10.561C11.192 26.9519 11.6878 26.4562 11.6878 25.8252V19.6956C11.6878 19.1097 11.192 18.5688 10.561 18.5688ZM11.0568 25.8252C11.0568 26.0956 10.8314 26.321 10.561 26.321H4.43145C4.16103 26.321 3.93567 26.0956 3.93567 25.8252V19.6956C3.93567 19.4252 4.16103 19.1998 4.43145 19.1998H10.561C10.8314 19.1998 11.0568 19.4252 11.0568 19.6956V25.8252Z" fill="white"/>
  <path d="M6.23522 20.867C6.19015 20.8219 6.19015 20.8219 6.14508 20.8219C6.1 20.8219 6.05493 20.7769 6.00986 20.7769C5.96479 20.7769 5.91972 20.7769 5.87465 20.8219C5.82958 20.8219 5.78451 20.867 5.78451 20.867L4.74789 21.9036C4.61268 22.0388 4.61268 22.2191 4.74789 22.3093C4.8831 22.4445 5.06339 22.4445 5.15353 22.3093L5.69437 21.7684V24.4276C5.69437 24.6078 5.82958 24.7431 6.00986 24.7431C6.19015 24.7431 6.32536 24.6078 6.32536 24.4276V21.7684L6.8662 22.3093C6.91127 22.3543 7.00141 22.3994 7.09155 22.3994C7.1817 22.3994 7.22677 22.3543 7.31691 22.3093C7.45212 22.174 7.45212 21.9938 7.31691 21.9036L6.23522 20.867Z" fill="white"/>
  <path d="M9.21032 20.867C9.16525 20.8219 9.0751 20.7769 8.98496 20.7769C8.89482 20.7769 8.80468 20.8219 8.75961 20.867L7.72299 21.9036C7.58778 22.0388 7.58778 22.2191 7.72299 22.3093C7.8582 22.4445 8.03848 22.4445 8.12862 22.3093L8.66947 21.7684V24.4276C8.66947 24.6078 8.80468 24.7431 8.98496 24.7431C9.16525 24.7431 9.30046 24.6078 9.30046 24.4276V21.7684L9.8413 22.3093C9.88637 22.3543 9.97651 22.3994 10.0667 22.3994C10.1568 22.3994 10.2019 22.3543 10.292 22.3093C10.4272 22.174 10.4272 21.9938 10.292 21.9036L9.21032 20.867Z" fill="white"/>
  <path d="M19.9819 18.5684H13.8523C13.2214 18.5684 12.7256 19.0641 12.7256 19.6951V25.8247C12.7256 26.4557 13.2214 26.9515 13.8523 26.9515H19.9819C20.6129 26.9515 21.1087 26.4557 21.1087 25.8247V19.6951C21.1087 19.1092 20.6129 18.5684 19.9819 18.5684ZM20.5228 25.8247C20.5228 26.0951 20.2974 26.3205 20.027 26.3205H13.8523C13.5819 26.3205 13.3566 26.0951 13.3566 25.8247V19.6951C13.3566 19.4247 13.5819 19.1993 13.8523 19.1993H19.9819C20.2523 19.1993 20.4777 19.4247 20.4777 19.6951V25.8247H20.5228Z" fill="white"/>
  <path d="M18.2701 20.2812H15.6109C15.4306 20.2812 15.2954 20.4165 15.2954 20.5967V22.039C15.2954 22.8503 15.8813 23.5263 16.6475 23.6615V24.6531H16.2419C16.0616 24.6531 15.9264 24.7883 15.9264 24.9686C15.9264 25.1489 16.0616 25.2841 16.2419 25.2841H17.6841C17.8644 25.2841 17.9996 25.1489 17.9996 24.9686C17.9996 24.7883 17.8644 24.6531 17.6841 24.6531H17.2785V23.6615C18.0447 23.5263 18.6306 22.8503 18.6306 22.039V20.5967C18.5856 20.4165 18.4503 20.2812 18.2701 20.2812ZM17.9546 22.039C17.9546 22.6249 17.5039 23.0756 16.9179 23.0756C16.332 23.0756 15.8813 22.6249 15.8813 22.039V20.8672H17.9546V22.039Z" fill="white"/>
  <path d="M29.4018 18.5684H23.2723C22.6413 18.5684 22.1455 19.0641 22.1455 19.6951V25.8247C22.1455 26.4557 22.6413 26.9515 23.2723 26.9515H29.4018C30.0328 26.9515 30.5286 26.4557 30.5286 25.8247V19.6951C30.5286 19.1092 29.9878 18.5684 29.4018 18.5684ZM29.8976 25.8247C29.8976 26.0951 29.6723 26.3205 29.4018 26.3205H23.2723C23.0018 26.3205 22.7765 26.0951 22.7765 25.8247V19.6951C22.7765 19.4247 23.0018 19.1993 23.2723 19.1993H29.4018C29.6723 19.1993 29.8976 19.4247 29.8976 19.6951V25.8247Z" fill="white"/>
  <path d="M26.3365 19.8755C24.8492 19.8755 23.6323 21.0924 23.6323 22.5797C23.6323 22.76 23.7675 22.8952 23.9478 22.8952H26.0661V24.9234C26.0661 25.0135 25.976 25.1037 25.8858 25.1037C25.7957 25.1037 25.7056 25.0135 25.7056 24.9234C25.7056 24.7431 25.5704 24.6079 25.3901 24.6079C25.2098 24.6079 25.0746 24.7431 25.0746 24.9234C25.0746 25.3741 25.4351 25.7346 25.8858 25.7346C26.3365 25.7346 26.6971 25.3741 26.6971 24.9234V22.8952H28.8154C28.9957 22.8952 29.1309 22.76 29.1309 22.5797C29.0408 21.0924 27.8239 19.8755 26.3365 19.8755ZM24.2633 22.2642C24.3985 21.2276 25.2999 20.4614 26.3365 20.4614C27.3732 20.4614 28.2746 21.2276 28.4098 22.2642H24.2633Z" fill="white"/>
</svg>
