<svg width="17" height="16" viewBox="0 0 17 16" fill="none" xmlns="http://www.w3.org/2000/svg">
	<g clip-path="url(#clip0_7583_6006)">
		<path d="M16.6943 8C16.6943 12.2812 13.2242 15.75 8.94434 15.75C4.66443 15.75 1.19434 12.2812 1.19434 8C1.19434 3.72134 4.66443 0.25 8.94434 0.25C13.2242 0.25 16.6943 3.72134 16.6943 8ZM9.1523 2.8125C7.44927 2.8125 6.36309 3.52991 5.51015 4.80494C5.39965 4.97012 5.43662 5.19291 5.59499 5.313L6.67934 6.13519C6.84199 6.25853 7.07374 6.22919 7.20012 6.06887C7.75837 5.36081 8.14115 4.95022 8.99084 4.95022C9.62924 4.95022 10.4189 5.36109 10.4189 5.98016C10.4189 6.44816 10.0326 6.6885 9.40221 7.04191C8.66709 7.454 7.69434 7.96691 7.69434 9.25V9.375C7.69434 9.58209 7.86224 9.75 8.06934 9.75H9.81934C10.0264 9.75 10.1943 9.58209 10.1943 9.375V9.33334C10.1943 8.44391 12.7939 8.40687 12.7939 6C12.7939 4.18744 10.9137 2.8125 9.1523 2.8125ZM8.94434 10.5625C8.15168 10.5625 7.50684 11.2073 7.50684 12C7.50684 12.7926 8.15168 13.4375 8.94434 13.4375C9.73699 13.4375 10.3818 12.7926 10.3818 12C10.3818 11.2073 9.73699 10.5625 8.94434 10.5625Z" fill="white"/>
	</g>
	<defs>
		<clipPath id="clip0_7583_6006">
			<rect width="16" height="16" fill="white" transform="translate(0.944336)"/>
		</clipPath>
	</defs>
</svg>
