<svg width="17" height="17" viewBox="0 0 17 17" fill="none" xmlns="http://www.w3.org/2000/svg">
<path d="M13.6158 4L2.521 4" stroke="white" stroke-linecap="round" stroke-linejoin="round"/>
<path d="M6.55615 7V11" stroke="white" stroke-linecap="round" stroke-linejoin="round"/>
<path d="M9.58179 7V11" stroke="white" stroke-linecap="round" stroke-linejoin="round"/>
<path d="M12.6074 4V13.5C12.6074 13.6326 12.5542 13.7598 12.4597 13.8536C12.3651 13.9473 12.2368 14 12.1031 14H4.0341C3.90034 14 3.77207 13.9473 3.67749 13.8536C3.58292 13.7598 3.52979 13.6326 3.52979 13.5V4" stroke="white" stroke-linecap="round" stroke-linejoin="round"/>
<path d="M10.5905 4V3C10.5905 2.73478 10.4842 2.48043 10.295 2.29289C10.1059 2.10536 9.84935 2 9.58185 2H6.55598C6.28848 2 6.03193 2.10536 5.84278 2.29289C5.65363 2.48043 5.54736 2.73478 5.54736 3V4" stroke="white" stroke-linecap="round" stroke-linejoin="round"/>
</svg>
