<svg width="24" height="25" viewBox="0 0 24 25" fill="none" xmlns="http://www.w3.org/2000/svg">
<path fill-rule="evenodd" clip-rule="evenodd" d="M9 5.80664C9 5.2099 9.23705 4.63761 9.65901 4.21565C10.081 3.79369 10.6533 3.55664 11.25 3.55664H12.75C13.3467 3.55664 13.919 3.79369 14.341 4.21565C14.7629 4.63761 15 5.2099 15 5.80664V7.30664C15 7.90338 14.7629 8.47567 14.341 8.89763C13.919 9.31959 13.3467 9.55664 12.75 9.55664V11.0566H21C21.1989 11.0566 21.3897 11.1357 21.5303 11.2763C21.671 11.417 21.75 11.6077 21.75 11.8066V13.3066C21.75 13.5056 21.671 13.6963 21.5303 13.837C21.3897 13.9776 21.1989 14.0566 21 14.0566C20.8011 14.0566 20.6103 13.9776 20.4697 13.837C20.329 13.6963 20.25 13.5056 20.25 13.3066V12.5566H12.75V13.3066C12.75 13.5056 12.671 13.6963 12.5303 13.837C12.3897 13.9776 12.1989 14.0566 12 14.0566C11.8011 14.0566 11.6103 13.9776 11.4697 13.837C11.329 13.6963 11.25 13.5056 11.25 13.3066V12.5566H3.75V13.3066C3.75 13.5056 3.67098 13.6963 3.53033 13.837C3.38968 13.9776 3.19891 14.0566 3 14.0566C2.80109 14.0566 2.61032 13.9776 2.46967 13.837C2.32902 13.6963 2.25 13.5056 2.25 13.3066V11.8066C2.25 11.6077 2.32902 11.417 2.46967 11.2763C2.61032 11.1357 2.80109 11.0566 3 11.0566H11.25V9.55664C10.6533 9.55664 10.081 9.31959 9.65901 8.89763C9.23705 8.47567 9 7.90338 9 7.30664V5.80664ZM0 17.8066C0 17.2099 0.237053 16.6376 0.65901 16.2157C1.08097 15.7937 1.65326 15.5566 2.25 15.5566H3.75C4.34674 15.5566 4.91903 15.7937 5.34099 16.2157C5.76295 16.6376 6 17.2099 6 17.8066V19.3066C6 19.9034 5.76295 20.4757 5.34099 20.8976C4.91903 21.3196 4.34674 21.5566 3.75 21.5566H2.25C1.65326 21.5566 1.08097 21.3196 0.65901 20.8976C0.237053 20.4757 0 19.9034 0 19.3066L0 17.8066ZM9 17.8066C9 17.2099 9.23705 16.6376 9.65901 16.2157C10.081 15.7937 10.6533 15.5566 11.25 15.5566H12.75C13.3467 15.5566 13.919 15.7937 14.341 16.2157C14.7629 16.6376 15 17.2099 15 17.8066V19.3066C15 19.9034 14.7629 20.4757 14.341 20.8976C13.919 21.3196 13.3467 21.5566 12.75 21.5566H11.25C10.6533 21.5566 10.081 21.3196 9.65901 20.8976C9.23705 20.4757 9 19.9034 9 19.3066V17.8066ZM18 17.8066C18 17.2099 18.2371 16.6376 18.659 16.2157C19.081 15.7937 19.6533 15.5566 20.25 15.5566H21.75C22.3467 15.5566 22.919 15.7937 23.341 16.2157C23.7629 16.6376 24 17.2099 24 17.8066V19.3066C24 19.9034 23.7629 20.4757 23.341 20.8976C22.919 21.3196 22.3467 21.5566 21.75 21.5566H20.25C19.6533 21.5566 19.081 21.3196 18.659 20.8976C18.2371 20.4757 18 19.9034 18 19.3066V17.8066Z" fill="white"/>
</svg>