<svg width="12" height="16" viewBox="0 0 12 16" fill="none" xmlns="http://www.w3.org/2000/svg">
  <path d="M7.54285 12.4164C8.66545 12.4164 9.5755 11.287 9.5755 9.89391C9.5755 8.5008 8.66545 7.37146 7.54285 7.37146C6.42024 7.37146 5.51019 8.5008 5.51019 9.89391C5.51019 11.287 6.42024 12.4164 7.54285 12.4164Z" fill="#CCE7F6"/>
  <path d="M10.1224 3.01224L7.18367 0.0734694C7.13469 0.0244898 7.07347 0 7 0H0.244898C0.110204 0 0 0.110204 0 0.244898V14.6082C0 14.7429 0.110204 14.8531 0.244898 14.8531H10.6898C10.5796 14.6816 10.4571 14.498 10.3837 14.351H0.502041V0.502041H6.7551V3.20816C6.7551 3.34286 6.86531 3.45306 7 3.45306H9.70612V6.77143C9.82857 6.83265 10 6.94286 10.2082 7.0898V3.2449C10.2082 3.23265 10.2082 3.22041 10.2082 3.20816C10.2204 3.13469 10.1837 3.06122 10.1224 3.01224ZM7.25714 2.96327V0.857143L9.36327 2.96327H7.25714Z" fill="white"/>
  <path d="M11.2163 14.1185C11.0817 14.1185 10.947 14.0695 10.849 13.9593L9.15921 12.2695C8.66941 12.6124 8.08165 12.8083 7.48165 12.8083C5.88982 12.8083 4.59186 11.5103 4.59186 9.91848C4.59186 8.32665 5.88982 7.02869 7.48165 7.02869C9.07349 7.02869 10.3714 8.32665 10.3714 9.91848C10.3714 10.3593 10.2735 10.8001 10.0776 11.192L11.8408 12.9552C12.049 13.1634 12.049 13.494 11.8408 13.7022L11.5837 13.9593C11.4857 14.0695 11.3633 14.1185 11.2163 14.1185ZM9.19594 11.6083L11.2041 13.6164C11.2163 13.6287 11.2408 13.6164 11.2408 13.6164L11.498 13.3593C11.5102 13.3471 11.5102 13.3348 11.498 13.3226L9.46533 11.2899L9.56329 11.1185C9.77145 10.7634 9.88165 10.3471 9.88165 9.93073C9.88165 8.60828 8.8041 7.54297 7.4939 7.54297C6.17145 7.54297 5.10614 8.62052 5.10614 9.93073C5.10614 11.2532 6.18369 12.3185 7.4939 12.3185C8.05716 12.3185 8.59594 12.1226 9.02451 11.7552L9.19594 11.6083Z" fill="white"/>
  <path d="M1.72634 6.84483C1.66512 6.84483 1.60389 6.82034 1.55491 6.77136C1.45696 6.6734 1.44471 6.51422 1.54267 6.41626L2.9141 4.95912C2.99981 4.86116 3.159 4.84891 3.25696 4.93463L3.83247 5.41218L4.84879 4.39585C4.93451 4.31014 5.08144 4.29789 5.1794 4.37136L6.42838 5.35095L7.21206 4.54279C7.31002 4.44483 7.4692 4.44483 7.56716 4.53055C7.66512 4.6285 7.66512 4.78769 7.5794 4.88565L6.64879 5.85299C6.56308 5.95095 6.41614 5.95095 6.31818 5.87748L5.0692 4.89789L4.04063 5.93871C3.95491 6.02442 3.80798 6.03667 3.71002 5.95095L3.13451 5.4734L1.92226 6.75912C1.86104 6.82034 1.79981 6.84483 1.72634 6.84483Z" fill="white"/>
  <path d="M6.58792 11.1551C6.45322 11.1551 6.34302 11.0449 6.34302 10.9102V9.93057C6.34302 9.79587 6.45322 9.68567 6.58792 9.68567C6.72261 9.68567 6.83282 9.79587 6.83282 9.93057V10.9102C6.83282 11.0449 6.72261 11.1551 6.58792 11.1551Z" fill="white"/>
  <path d="M7.40817 11.1552C7.27347 11.1552 7.16327 11.045 7.16327 10.9103V9.47769C7.16327 9.34299 7.27347 9.23279 7.40817 9.23279C7.54286 9.23279 7.65307 9.34299 7.65307 9.47769V10.8981C7.66531 11.045 7.55511 11.1552 7.40817 11.1552Z" fill="white"/>
  <path d="M8.24099 11.155C8.1063 11.155 7.99609 11.0448 7.99609 10.9101V8.88967C7.99609 8.75498 8.1063 8.64478 8.24099 8.64478C8.37569 8.64478 8.48589 8.75498 8.48589 8.88967V10.8978C8.48589 11.0448 8.37569 11.155 8.24099 11.155Z" fill="white"/>
</svg>
