<svg width="17" height="16" viewBox="0 0 17 16" fill="none" xmlns="http://www.w3.org/2000/svg">
<path d="M13.7452 3.5L2.65039 3.5" stroke="#696969" stroke-linecap="round" stroke-linejoin="round"/>
<path d="M6.68555 6.5V10.5" stroke="#696969" stroke-linecap="round" stroke-linejoin="round"/>
<path d="M9.71143 6.5V10.5" stroke="#696969" stroke-linecap="round" stroke-linejoin="round"/>
<path d="M12.7368 3.5V13C12.7368 13.1326 12.6836 13.2598 12.5891 13.3536C12.4945 13.4473 12.3662 13.5 12.2325 13.5H4.16349C4.02974 13.5 3.90147 13.4473 3.80689 13.3536C3.71231 13.2598 3.65918 13.1326 3.65918 13V3.5" stroke="#696969" stroke-linecap="round" stroke-linejoin="round"/>
<path d="M10.7199 3.5V2.5C10.7199 2.23478 10.6136 1.98043 10.4244 1.79289C10.2353 1.60536 9.97874 1.5 9.71124 1.5H6.68538C6.41788 1.5 6.16133 1.60536 5.97218 1.79289C5.78302 1.98043 5.67676 2.23478 5.67676 2.5V3.5" stroke="#696969" stroke-linecap="round" stroke-linejoin="round"/>
</svg>
