<svg width="15" height="15" viewBox="0 0 15 15" fill="none" xmlns="http://www.w3.org/2000/svg">
<path fill-rule="evenodd" clip-rule="evenodd" d="M2.45637 0.492074C3.33503 0.492074 10.8895 0.460944 10.8895 0.460944C11.0832 0.460155 11.3799 0.526625 11.5527 0.609404C11.5527 0.609404 11.4402 0.488479 11.598 0.651934C11.7394 0.798377 14.7173 3.87105 14.7756 3.93296C14.8339 3.99495 14.7967 3.96207 14.7967 3.96207C14.8777 4.13806 14.9316 4.44261 14.9316 4.6365V13.0207C14.9316 13.6419 14.1882 14.478 13.4782 14.478C12.7681 14.478 3.0838 14.449 2.37465 14.449C1.66549 14.449 0.971599 13.8991 0.940382 13.0371C0.909164 12.175 0.971599 2.66662 0.971599 1.91801C0.971599 1.16948 1.57772 0.492074 2.45637 0.492074ZM2.2952 2.05761L2.30835 12.6681C2.30861 12.8609 2.46619 13.0192 2.66016 13.0202L13.2323 13.0762C13.2783 13.0765 13.3239 13.0677 13.3665 13.0503C13.4091 13.0329 13.4479 13.0072 13.4805 12.9748C13.5131 12.9423 13.5389 12.9037 13.5566 12.8612C13.5742 12.8187 13.5832 12.7731 13.5831 12.7271L13.5705 4.80302C13.5704 4.70674 13.5136 4.57362 13.4438 4.50592L10.8803 2.0228C10.81 1.95475 10.7537 1.97869 10.7537 2.0755V5.15711C10.7537 5.44991 10.3473 5.9586 9.97915 5.9586H4.68283C4.27946 5.9586 3.84451 5.54523 3.84451 5.15711C3.84451 4.769 3.84328 2.07567 3.84328 2.07567C3.84328 1.97886 3.76506 1.89942 3.6686 1.89828L2.46953 1.88469C2.44669 1.88445 2.42403 1.88876 2.40286 1.89735C2.3817 1.90594 2.36245 1.91864 2.34624 1.93473C2.33002 1.95082 2.31716 1.96996 2.3084 1.99105C2.29964 2.01215 2.29515 2.03477 2.2952 2.05761ZM5.14882 2.09619V4.53442C5.14882 4.63088 5.22739 4.70989 5.3242 4.70989H9.24404C9.34164 4.70989 9.41942 4.63132 9.41942 4.53442V2.09628C9.41938 2.04977 9.40089 2.00517 9.36802 1.97226C9.33514 1.93935 9.29056 1.92082 9.24404 1.92073H5.32429C5.2266 1.92073 5.14891 1.9993 5.14891 2.09628L5.14882 2.09619Z" fill="white"/>
<path fill-rule="evenodd" clip-rule="evenodd" d="M7.92329 6.762C9.34177 6.78436 10.7147 8.02719 10.7147 9.54423C10.7147 11.0613 9.43314 12.3312 7.99493 12.3086C6.55672 12.2859 5.125 11.0139 5.125 9.54248C5.125 8.07104 6.50481 6.73964 7.9232 6.762H7.92329ZM6.50639 9.50758C6.50639 10.3561 7.18029 10.988 7.92855 10.9845C8.6769 10.9811 9.31134 10.3595 9.31511 9.521C9.31888 8.68241 8.63919 8.08717 7.91338 8.08717C7.18765 8.08717 6.50639 8.65891 6.50639 9.50749V9.50758Z" fill="white"/>
</svg>
