<svg width="25" height="24" viewBox="0 0 25 24" fill="none" xmlns="http://www.w3.org/2000/svg">
<path d="M11.5741 13.5C12.4079 13.5 13.0838 12.8284 13.0838 12C13.0838 11.1716 12.4079 10.5 11.5741 10.5C10.7404 10.5 10.0645 11.1716 10.0645 12C10.0645 12.8284 10.7404 13.5 11.5741 13.5Z" fill="#444444"/>
<path d="M11.5741 8.5C12.4079 8.5 13.0838 7.82843 13.0838 7C13.0838 6.17157 12.4079 5.5 11.5741 5.5C10.7404 5.5 10.0645 6.17157 10.0645 7C10.0645 7.82843 10.7404 8.5 11.5741 8.5Z" fill="#444444"/>
<path d="M11.5741 18.5C12.4079 18.5 13.0838 17.8284 13.0838 17C13.0838 16.1716 12.4079 15.5 11.5741 15.5C10.7404 15.5 10.0645 16.1716 10.0645 17C10.0645 17.8284 10.7404 18.5 11.5741 18.5Z" fill="#444444"/>
</svg>
