<svg width="12" height="16" viewBox="0 0 12 16" fill="none" xmlns="http://www.w3.org/2000/svg">
  <path d="M11.5577 0.442017H7.61035V4.38938H11.5577V0.442017Z" fill="#FFC7C8"/>
  <path d="M3.34705 4.18425C3.34705 3.55267 3.8681 3.03162 4.49968 3.03162C4.51547 3.03162 4.51547 3.03162 4.53126 3.03162V0.347412H0.299683V4.48425H3.34705V4.18425Z" fill="#CCE7F6"/>
  <path d="M2.17917 3.36311C2.10022 3.36311 2.02127 3.33153 1.97391 3.28416L1.35812 2.74732C1.2318 2.63679 1.21601 2.43153 1.32654 2.28943C1.43706 2.16311 1.64233 2.14732 1.78443 2.25785L2.14759 2.57364L3.00022 1.5789C3.11075 1.43679 3.31601 1.421 3.45812 1.54732C3.60022 1.65785 3.61601 1.86311 3.4897 2.00522L2.41601 3.26837C2.36864 3.31574 2.2897 3.36311 2.21075 3.36311C2.19496 3.36311 2.19496 3.36311 2.17917 3.36311Z" fill="#333333"/>
  <path d="M2.73158 4.81579H0.315789C0.142105 4.81579 0 4.67368 0 4.5V0.315789C0 0.142105 0.142105 0 0.315789 0H4.5C4.67368 0 4.81579 0.142105 4.81579 0.315789V2.44737C4.81579 2.62105 4.67368 2.76316 4.5 2.76316C4.32632 2.76316 4.18421 2.62105 4.18421 2.44737V0.647368H0.647368V4.18421H2.73158C2.90526 4.18421 3.04737 4.32631 3.04737 4.5C3.06316 4.67368 2.92105 4.81579 2.73158 4.81579Z" fill="#333333"/>
  <path d="M11.6684 4.81579H7.49999C7.32631 4.81579 7.1842 4.67368 7.1842 4.5V0.315789C7.1842 0.142105 7.32631 0 7.49999 0H11.6684C11.8421 0 11.9842 0.142105 11.9842 0.315789V4.48421C12 4.67368 11.8579 4.81579 11.6684 4.81579ZM7.81578 4.18421H11.3526V0.647368H7.81578V4.18421Z" fill="#333333"/>
  <path d="M10.0421 2.41568L10.5474 1.91042C10.6737 1.7841 10.6737 1.57884 10.5474 1.45252C10.421 1.32621 10.2158 1.32621 10.0895 1.45252L9.5842 1.95779L9.07894 1.45252C8.95262 1.32621 8.74736 1.32621 8.62104 1.45252C8.49473 1.57884 8.49473 1.7841 8.62104 1.91042L9.1263 2.41568L8.62104 2.92095C8.49473 3.04726 8.49473 3.25253 8.62104 3.37884C8.6842 3.442 8.76315 3.47358 8.84209 3.47358C8.92104 3.47358 8.99999 3.442 9.06315 3.37884L9.56841 2.87358L10.0737 3.37884C10.1368 3.442 10.2158 3.47358 10.2947 3.47358C10.3737 3.47358 10.4526 3.442 10.5158 3.37884C10.6421 3.25253 10.6421 3.04726 10.5158 2.92095L10.0421 2.41568Z" fill="#333333"/>
  <path d="M9.56851 7.51583C9.36325 7.51583 9.18957 7.56319 9.01588 7.65793C8.88957 7.15267 8.43167 6.75793 7.87904 6.75793C7.67378 6.75793 7.4843 6.8053 7.32641 6.90004C7.20009 6.39477 6.7422 6.01583 6.18957 6.01583C6.00009 6.01583 5.82641 6.0632 5.68431 6.14214V4.18425C5.68431 3.55267 5.16325 3.03162 4.51588 3.03162C3.88431 3.03162 3.36325 3.55267 3.36325 4.18425V9.04741C2.13167 8.33688 1.51589 8.58951 1.21589 8.96846C0.694833 9.61583 0.994833 10.9106 1.57904 11.4632C2.92115 12.8053 3.94746 15.2632 3.94746 15.2948C3.99483 15.4369 4.12115 15.5316 4.26325 15.5316H9.31588C9.48957 15.5316 9.63167 15.3895 9.63167 15.2158C9.69483 13.9211 10.7211 11.479 10.7211 11.4474C10.7211 11.4316 10.7369 11.4158 10.7369 11.3842C10.7369 11.3842 10.7369 11.3842 10.7369 11.3685C10.7369 11.3527 10.7369 11.3527 10.7369 11.3369V8.65267C10.7369 8.03688 10.2159 7.51583 9.56851 7.51583ZM10.0896 11.3053C9.97904 11.6842 9.17378 13.4474 9.01588 14.8842H4.48431C4.21588 14.0474 3.26852 12.2685 2.00536 10.9895C1.61062 10.6106 1.42115 9.67898 1.68957 9.36319C1.91062 9.09477 2.52641 9.26846 3.33167 9.8053V11.3527C3.33167 11.5264 3.47378 11.6685 3.64746 11.6685C3.82115 11.6685 3.96325 11.5264 3.96325 11.3527V4.18425C3.96325 3.90004 4.2001 3.6632 4.5001 3.6632C4.78431 3.6632 5.00536 3.90004 5.00536 4.18425V8.85793C5.00536 9.03162 5.14746 9.17372 5.32115 9.17372C5.49483 9.17372 5.63694 9.03162 5.63694 8.85793V7.18425C5.63694 6.90004 5.87378 6.67898 6.17378 6.67898C6.45799 6.67898 6.67904 6.91583 6.67904 7.18425V9.22109C6.67904 9.39477 6.82115 9.53688 6.99483 9.53688C7.16852 9.53688 7.31062 9.39477 7.31062 9.22109V7.92635C7.31062 7.64214 7.54746 7.42109 7.84746 7.42109C8.13167 7.42109 8.35273 7.65793 8.35273 7.92635V9.63162C8.35273 9.8053 8.49483 9.94741 8.66852 9.94741C8.8422 9.94741 8.9843 9.8053 8.9843 9.63162V8.66846C8.9843 8.38425 9.22115 8.1632 9.52115 8.1632C9.80536 8.1632 10.0422 8.40004 10.0422 8.66846V11.3053H10.0896Z" fill="#333333"/>
</svg>
