<svg width="12" height="16" viewBox="0 0 12 16" fill="none" xmlns="http://www.w3.org/2000/svg">
<path d="M9.00418 0.318725V3.09163C9.00418 3.26693 8.86076 3.41036 8.68546 3.41036H3.31494C3.13964 3.41036 2.99622 3.26693 2.99622 3.09163V0.318725C2.99622 0.143426 3.13964 0 3.31494 0H3.66554C4.14363 0 4.54203 0.398406 4.54203 0.876494L4.55797 0.89243H7.4743L7.49024 0.876494C7.49024 0.398406 7.87271 0 8.36673 0H8.70139C8.86076 0 9.00418 0.143426 9.00418 0.318725Z" fill="#2CA9E0"/>
<path d="M10.4539 5.37056H1.25867V13.4662H10.4539V5.37056Z" fill="#CCE7F6"/>
<path d="M11.6653 15.8286H0.318725C0.143426 15.8286 0 15.6852 0 15.5099V1.72107C0 1.54577 0.143426 1.40234 0.318725 1.40234H3.2988C3.4741 1.40234 3.61753 1.54577 3.61753 1.72107C3.61753 1.89637 3.4741 2.03979 3.2988 2.03979H0.653386V15.1912H11.3466V2.03979H8.68526C8.50996 2.03979 8.36653 1.89637 8.36653 1.72107C8.36653 1.54577 8.50996 1.40234 8.68526 1.40234H11.6813C11.8566 1.40234 12 1.54577 12 1.72107V15.5099C12 15.6852 11.8566 15.8286 11.6653 15.8286Z" fill="#333333"/>
<path d="M8.68504 0H8.35038C7.87229 0 7.47388 0.398406 7.47388 0.876494L7.45795 0.89243H4.54161L4.52567 0.876494C4.52567 0.398406 4.1432 0 3.64918 0H3.29858C3.12328 0 2.97986 0.143426 2.97986 0.318725V3.09163C2.97986 3.26693 3.12328 3.41036 3.29858 3.41036H8.6691C8.8444 3.41036 8.98783 3.26693 8.98783 3.09163V0.318725C9.00376 0.143426 8.86034 0 8.68504 0ZM8.35038 2.77291H3.63324V0.653386H3.64918C3.77667 0.653386 3.87229 0.749004 3.87229 0.876494C3.87229 1.24303 4.17508 1.54582 4.54161 1.54582H7.45795C7.82448 1.54582 8.12727 1.24303 8.12727 0.876494C8.12727 0.749004 8.22289 0.653386 8.35038 0.653386H8.36631V2.77291H8.35038Z" fill="#333333"/>
<path d="M9.35469 7.66525H4.98816C4.81286 7.66525 4.66943 7.52183 4.66943 7.34653C4.66943 7.17123 4.81286 7.0278 4.98816 7.0278H9.35469C9.52999 7.0278 9.67342 7.17123 9.67342 7.34653C9.68936 7.52183 9.54593 7.66525 9.35469 7.66525Z" fill="#333333"/>
<path d="M9.35469 9.08366H4.98816C4.81286 9.08366 4.66943 8.94024 4.66943 8.76494C4.66943 8.58964 4.81286 8.44621 4.98816 8.44621H9.35469C9.52999 8.44621 9.67342 8.58964 9.67342 8.76494C9.68936 8.94024 9.54593 9.08366 9.35469 9.08366Z" fill="#333333"/>
<path d="M9.35469 10.486H4.98816C4.81286 10.486 4.66943 10.3426 4.66943 10.1673C4.66943 9.99198 4.81286 9.84856 4.98816 9.84856H9.35469C9.52999 9.84856 9.67342 9.99198 9.67342 10.1673C9.68936 10.3426 9.54593 10.486 9.35469 10.486Z" fill="#333333"/>
<path d="M9.35469 11.9044H4.98816C4.81286 11.9044 4.66943 11.761 4.66943 11.5857C4.66943 11.4104 4.81286 11.267 4.98816 11.267H9.35469C9.52999 11.267 9.67342 11.4104 9.67342 11.5857C9.68936 11.761 9.54593 11.9044 9.35469 11.9044Z" fill="#333333"/>
<path d="M2.90028 8.39834C2.82059 8.39834 2.74091 8.36647 2.6931 8.31866L2.15127 7.84057C2.02378 7.72902 2.00785 7.52185 2.1194 7.37842C2.23095 7.25093 2.43812 7.23499 2.58155 7.34655L2.8684 7.60153L3.60147 6.74097C3.71302 6.59754 3.9202 6.58161 4.06362 6.7091C4.20705 6.82065 4.22298 7.02782 4.09549 7.17125L3.15526 8.28679C3.09151 8.35053 3.01183 8.39834 2.93215 8.39834C2.91621 8.39834 2.90028 8.39834 2.90028 8.39834Z" fill="#333333"/>
<path d="M2.90028 10.3265C2.82059 10.3265 2.74091 10.2947 2.6931 10.2469L2.15127 9.76878C2.02378 9.65722 2.00785 9.45005 2.1194 9.30663C2.23095 9.17914 2.43812 9.1632 2.58155 9.27475L2.8684 9.52973L3.60147 8.66918C3.71302 8.52575 3.9202 8.50981 4.06362 8.6373C4.20705 8.74886 4.22298 8.95603 4.09549 9.09946L3.15526 10.215C3.09151 10.2787 3.01183 10.3265 2.93215 10.3265C2.91621 10.3265 2.90028 10.3265 2.90028 10.3265Z" fill="#333333"/>
<path d="M2.90028 12.2072C2.82059 12.2072 2.74091 12.1753 2.6931 12.1275L2.15127 11.6494C2.02378 11.5379 2.00785 11.3307 2.1194 11.1873C2.23095 11.0598 2.43812 11.0438 2.58155 11.1554L2.8684 11.4104L3.60147 10.5498C3.71302 10.4064 3.9202 10.3904 4.06362 10.5179C4.20705 10.6295 4.22298 10.8367 4.09549 10.9801L3.15526 12.0956C3.09151 12.1594 3.01183 12.2072 2.93215 12.2072C2.91621 12.2072 2.90028 12.2072 2.90028 12.2072Z" fill="#333333"/>
</svg>

