<svg width="12" height="16" viewBox="0 0 12 16" fill="none" xmlns="http://www.w3.org/2000/svg">
  <g clip-path="url(#clip0_7489_53734)">
    <path d="M8.91974 0.380615V3.13978H11.7027L8.91974 0.380615Z" fill="#2CA9E0"/>
    <path d="M4.54335 8.50586C6.05687 7.836 6.7408 6.06601 6.07093 4.55248C5.40107 3.03895 3.63108 2.35503 2.11756 3.0249C0.60403 3.69476 -0.0798926 5.46475 0.589972 6.97828C1.25984 8.4918 3.02982 9.17572 4.54335 8.50586Z" fill="#CCE7F6"/>
    <path d="M10.6201 5.18519H7.36139C7.23057 5.18519 7.12354 5.07815 7.12354 4.94733C7.12354 4.81651 7.23057 4.70947 7.36139 4.70947H10.6201C10.7509 4.70947 10.8579 4.81651 10.8579 4.94733C10.8698 5.07815 10.7628 5.18519 10.6201 5.18519Z" fill="#333333"/>
    <path d="M10.6201 9.41932H9.44269C9.31187 9.41932 9.20483 9.31229 9.20483 9.18146C9.20483 9.05064 9.31187 8.9436 9.44269 8.9436H10.6201C10.7509 8.9436 10.858 9.05064 10.858 9.18146C10.8698 9.31229 10.7628 9.41932 10.6201 9.41932Z" fill="#333333"/>
    <path d="M10.597 6.25562H7.80213C7.67131 6.25562 7.56427 6.14859 7.56427 6.01776C7.56427 5.88694 7.67131 5.77991 7.80213 5.77991H10.597C10.7278 5.77991 10.8348 5.88694 10.8348 6.01776C10.8348 6.13669 10.7278 6.25562 10.597 6.25562Z" fill="#333333"/>
    <path d="M10.3688 11.4757H5.36534C5.16447 11.4757 5.00012 11.3687 5.00012 11.2379C5.00012 11.107 5.16447 11 5.36534 11H10.3688C10.5697 11 10.734 11.107 10.734 11.2379C10.7523 11.3687 10.5879 11.4757 10.3688 11.4757Z" fill="#333333"/>
    <path d="M10.3688 12.4757H5.36534C5.16447 12.4757 5.00012 12.3687 5.00012 12.2379C5.00012 12.107 5.16447 12 5.36534 12H10.3688C10.5697 12 10.734 12.107 10.734 12.2379C10.7523 12.3687 10.5879 12.4757 10.3688 12.4757Z" fill="#333333"/>
    <path d="M10.3688 13.4757H5.36534C5.16447 13.4757 5.00012 13.3687 5.00012 13.2379C5.00012 13.107 5.16447 13 5.36534 13H10.3688C10.5697 13 10.734 13.107 10.734 13.2379C10.7523 13.3687 10.5879 13.4757 10.3688 13.4757Z" fill="#333333"/>
    <path d="M12.0004 3.11596C12.0004 3.03271 11.9647 2.96135 11.9052 2.92567L9.05093 0.0713578C9.03904 0.0594648 9.01525 0.0475719 9.00336 0.0356789C9.00336 0.0356789 8.99146 0.0356789 8.99146 0.0237859C8.96768 0.011893 8.95578 0.011893 8.932 0C8.92011 0 8.89632 0 8.88443 0H1.29474C1.16391 0 1.05688 0.107037 1.05688 0.237859V2.68781C1.15202 2.67592 1.23527 2.67592 1.33041 2.67592C1.40177 2.67592 1.47313 2.67592 1.54449 2.68781V0.487611H8.64657V3.11596C8.64657 3.24678 8.7536 3.35382 8.88443 3.35382H11.5128V15.0367H1.53259V8.83647C1.46124 8.84836 1.38988 8.84836 1.31852 8.84836C1.22338 8.84836 1.12823 8.84836 1.04498 8.83647V15.2864C1.04498 15.4172 1.15202 15.5243 1.28284 15.5243H11.7506C11.8815 15.5243 11.9885 15.4172 11.9885 15.2864V3.15164C12.0004 3.13974 12.0004 3.12785 12.0004 3.11596ZM9.12229 2.8781V0.832507L11.1679 2.8781H9.12229Z" fill="#333333"/>
    <path d="M3.33003 9.08624C3.23488 9.08624 3.13974 9.08624 3.0327 9.07434C1.29633 8.91974 0 7.50447 0 5.7681C0 4.03172 1.29633 2.60457 3.02081 2.46185C3.2111 2.44996 3.3776 2.43807 3.55599 2.46185C5.29237 2.58078 6.64816 4.03172 6.64816 5.77999C6.64816 7.52826 5.29237 8.9792 3.5441 9.09813C3.48464 9.08624 3.40139 9.08624 3.33003 9.08624ZM3.33003 2.92568C3.24678 2.92568 3.16353 2.92568 3.08028 2.93757C1.59366 3.06839 0.487611 4.28148 0.487611 5.7681C0.487611 7.25472 1.59366 8.4678 3.06838 8.59863C3.23488 8.61052 3.36571 8.62241 3.50842 8.59863C5.00693 8.49159 6.16055 7.25472 6.16055 5.7681C6.16055 4.28148 4.99504 3.03272 3.50842 2.93757C3.44896 2.92568 3.38949 2.92568 3.33003 2.92568Z" fill="#333333"/>
    <path d="M2.19988 7.24289C2.19988 7.18343 2.21178 7.12396 2.21178 7.0526C2.21178 7.04071 2.19988 7.01692 2.18799 7.00503C2.15231 6.96935 2.11663 6.93367 2.08095 6.89799C2.06906 6.8861 2.04527 6.87421 2.03338 6.87421C1.91445 6.87421 1.79552 6.8861 1.67659 6.89799C1.61713 6.89799 1.58145 6.8861 1.55766 6.83853C1.47441 6.69581 1.41495 6.5412 1.36737 6.3747C1.35548 6.31524 1.36737 6.27956 1.40305 6.24388C1.4863 6.17252 1.56956 6.08927 1.6647 6.01791C1.68848 6.00602 1.68848 5.98224 1.68848 5.95845C1.68848 5.92277 1.67659 5.88709 1.68848 5.85141C1.70038 5.79195 1.67659 5.76816 1.64091 5.73248C1.55766 5.66113 1.4863 5.58977 1.40305 5.51841C1.36737 5.48273 1.35548 5.44705 1.36737 5.41137C1.41495 5.24487 1.47441 5.07837 1.56956 4.93565C1.59334 4.89998 1.62902 4.88808 1.6647 4.88808C1.78363 4.89998 1.90256 4.89998 2.02149 4.91187C2.03338 4.91187 2.05717 4.89998 2.06906 4.88808C2.10474 4.8524 2.14042 4.81673 2.1761 4.78105C2.18799 4.76915 2.19988 4.74537 2.19988 4.73347C2.19988 4.62644 2.18799 4.5194 2.1761 4.41236C2.1642 4.34101 2.18799 4.29343 2.25935 4.25776C2.40206 4.1864 2.54478 4.12693 2.68749 4.07936C2.74696 4.06747 2.78264 4.06747 2.83021 4.11504C2.90157 4.19829 2.98482 4.28154 3.05618 4.37669C3.06807 4.40047 3.09185 4.40047 3.11564 4.40047C3.16321 4.40047 3.22268 4.40047 3.27025 4.40047C3.28214 4.40047 3.30593 4.38858 3.31782 4.37669C3.40107 4.29343 3.47243 4.19829 3.55568 4.11504C3.59136 4.07936 3.62704 4.06747 3.6865 4.07936C3.853 4.12693 4.00761 4.1864 4.15033 4.26965C4.1979 4.29343 4.20979 4.32911 4.20979 4.37669C4.1979 4.49561 4.1979 4.61454 4.18601 4.73347C4.18601 4.75726 4.18601 4.76915 4.20979 4.79294C4.24547 4.82862 4.28115 4.8643 4.31683 4.89998C4.32872 4.91187 4.35251 4.92376 4.3644 4.92376C4.48333 4.92376 4.60226 4.91187 4.72119 4.89998C4.76876 4.89998 4.79255 4.91187 4.81633 4.94755C4.91148 5.10216 4.97094 5.25676 5.01851 5.43516C5.03041 5.47084 5.01851 5.50652 4.98284 5.5422C4.88769 5.62545 4.80444 5.6968 4.7093 5.78006C4.6974 5.79195 4.68551 5.81573 4.68551 5.82763C4.68551 5.88709 4.68551 5.93466 4.68551 5.99413C4.68551 6.00602 4.6974 6.02981 4.7093 6.0417C4.79255 6.12495 4.88769 6.19631 4.98284 6.27956C5.01851 6.31524 5.03041 6.35092 5.01851 6.39849C4.97094 6.56499 4.91148 6.7196 4.82823 6.86232C4.80444 6.90989 4.75687 6.92178 4.7093 6.92178C4.59037 6.90989 4.48333 6.90989 4.3644 6.89799C4.34062 6.89799 4.32872 6.89799 4.30494 6.92178C4.26926 6.95746 4.24547 6.99314 4.20979 7.01692C4.17411 7.04071 4.17411 7.0645 4.17411 7.10017C4.18601 7.20721 4.18601 7.31425 4.1979 7.43318C4.1979 7.48075 4.18601 7.52832 4.13844 7.55211C3.99572 7.63536 3.84111 7.70672 3.67461 7.74239C3.62704 7.75429 3.59136 7.74239 3.55568 7.70672C3.48432 7.62347 3.41296 7.54021 3.34161 7.44507C3.31782 7.42128 3.30593 7.40939 3.27025 7.42128C3.19889 7.42128 3.13943 7.42128 3.06807 7.42128C3.05618 7.42128 3.03239 7.43318 3.03239 7.44507C2.96103 7.52832 2.88967 7.62347 2.81832 7.70672C2.78264 7.75429 2.73507 7.76618 2.6756 7.75429C2.53289 7.70672 2.39017 7.64725 2.25935 7.564C2.21178 7.54021 2.18799 7.49264 2.18799 7.43318C2.19988 7.34993 2.19988 7.29046 2.19988 7.24289ZM1.93824 5.10216C1.87877 5.10216 1.81931 5.09026 1.75984 5.09026C1.73606 5.09026 1.72416 5.09026 1.71227 5.11405C1.67659 5.1973 1.64091 5.28055 1.60523 5.3638C1.59334 5.38759 1.60523 5.39948 1.61713 5.41137C1.70038 5.48273 1.78363 5.56598 1.87877 5.63734C1.91445 5.66113 1.92634 5.6968 1.91445 5.74438C1.91445 5.82763 1.91445 5.92277 1.91445 6.00602C1.91445 6.05359 1.90256 6.08927 1.86688 6.11306C1.78363 6.18442 1.70038 6.25577 1.61713 6.32713C1.59334 6.35092 1.58145 6.36281 1.59334 6.3866C1.62902 6.46985 1.6647 6.54121 1.68848 6.62446C1.70038 6.64824 1.71227 6.66013 1.74795 6.66013C1.85499 6.64824 1.96202 6.64824 2.06906 6.63635C2.11663 6.63635 2.15231 6.64824 2.18799 6.68392C2.23556 6.74339 2.29503 6.80285 2.35449 6.85042C2.40206 6.8861 2.41396 6.92178 2.41396 6.98124C2.40206 7.08828 2.40206 7.19532 2.39017 7.30236C2.39017 7.31425 2.39017 7.33803 2.40206 7.33803C2.48531 7.37371 2.56856 7.42128 2.65181 7.45696C2.66371 7.45696 2.6756 7.45696 2.68749 7.44507C2.74696 7.37371 2.80642 7.30235 2.87778 7.2191C2.91346 7.17153 2.94914 7.12396 3.0086 7.13585C3.11564 7.15964 3.22268 7.14775 3.32971 7.13585C3.37729 7.13585 3.42486 7.14775 3.44864 7.19532C3.50811 7.27857 3.57947 7.36182 3.65082 7.43318C3.67461 7.45696 3.6865 7.45696 3.71029 7.45696C3.79354 7.42128 3.87679 7.38561 3.94815 7.34993C3.97193 7.33803 3.98383 7.32614 3.97193 7.30236C3.96004 7.19532 3.96004 7.08828 3.94815 6.98124C3.94815 6.92178 3.96004 6.8861 4.00761 6.85042C4.06708 6.79096 4.12654 6.73149 4.18601 6.67203C4.22169 6.63635 4.25736 6.61256 4.30494 6.62446C4.41197 6.63635 4.51901 6.63635 4.63794 6.64824C4.66173 6.64824 4.68551 6.64824 4.68551 6.62446C4.72119 6.54121 4.75687 6.45795 4.79255 6.3747C4.80444 6.35092 4.79255 6.33902 4.78066 6.32713C4.6974 6.25577 4.61415 6.18442 4.5309 6.11306C4.49522 6.07738 4.48333 6.0417 4.48333 5.99413C4.48333 5.91088 4.48333 5.82763 4.48333 5.74438C4.48333 5.68491 4.49522 5.64923 4.5428 5.61355C4.62605 5.5422 4.6974 5.47084 4.78066 5.41137C4.80444 5.38759 4.80444 5.37569 4.79255 5.34002C4.75687 5.25676 4.72119 5.17351 4.68551 5.10216C4.67362 5.07837 4.66173 5.07837 4.63794 5.07837C4.5309 5.09026 4.41197 5.09026 4.30494 5.10216C4.25736 5.10216 4.22169 5.09026 4.1979 5.05458C4.13844 4.99512 4.07897 4.93565 4.01951 4.87619C3.98383 4.84051 3.96004 4.80483 3.97193 4.74537C3.98383 4.63833 3.98383 4.53129 3.99572 4.42426C3.99572 4.40047 3.99572 4.38858 3.97193 4.37669C3.88868 4.34101 3.80543 4.30533 3.72218 4.26965C3.6984 4.25776 3.6865 4.26965 3.67461 4.28154C3.60325 4.36479 3.53189 4.44804 3.46054 4.53129C3.42486 4.56697 3.38918 4.57887 3.34161 4.57887C3.25836 4.57887 3.17511 4.57887 3.07996 4.57887C3.03239 4.57887 2.99671 4.56697 2.96103 4.53129C2.88967 4.44804 2.81832 4.36479 2.74696 4.28154C2.73507 4.26965 2.72317 4.25776 2.69939 4.26965C2.61614 4.30533 2.53289 4.34101 2.44963 4.37669C2.42585 4.38858 2.41396 4.40047 2.42585 4.42426C2.43774 4.53129 2.43774 4.63833 2.44963 4.74537C2.44963 4.80483 2.43774 4.84051 2.40206 4.87619C2.3426 4.93565 2.28313 4.99512 2.22367 5.05458C2.19988 5.09026 2.1642 5.10216 2.11663 5.10216C2.04527 5.11405 1.98581 5.11405 1.93824 5.10216Z" fill="black"/>
    <path d="M4.0433 5.88722C4.0433 6.35105 3.67462 6.71973 3.2108 6.73162C2.74697 6.73162 2.37829 6.36294 2.36639 5.89911C2.36639 5.43529 2.74697 5.06661 3.1989 5.05471C3.66273 5.04282 4.0433 5.4234 4.0433 5.88722ZM3.2108 5.26879C2.85401 5.26879 2.59236 5.55422 2.58047 5.88722C2.58047 6.23212 2.85401 6.51755 3.1989 6.51755C3.5438 6.51755 3.82923 6.24401 3.82923 5.89911C3.82923 5.54233 3.55569 5.26879 3.2108 5.26879Z" fill="black"/>
  </g>
  <defs>
    <clipPath id="clip0_7489_53734">
      <rect width="12" height="16" fill="white"/>
    </clipPath>
  </defs>
</svg>
