<svg width="24" height="25" viewBox="0 0 24 25" fill="none" xmlns="http://www.w3.org/2000/svg">
<path d="M19.5 4.73535C19.5 4.13861 19.7371 3.56632 20.159 3.14436C20.581 2.7224 21.1533 2.48535 21.75 2.48535C22.3467 2.48535 22.919 2.7224 23.341 3.14436C23.7629 3.56632 24 4.13861 24 4.73535V21.2354C24 21.8321 23.7629 22.4044 23.341 22.8263C22.919 23.2483 22.3467 23.4854 21.75 23.4854C21.1533 23.4854 20.581 23.2483 20.159 22.8263C19.7371 22.4044 19.5 21.8321 19.5 21.2354V4.73535ZM18 5.82135C14.8995 7.24635 11.1915 8.04285 7.5 8.30535V17.6609C8.04486 17.6916 8.58898 17.7341 9.132 17.7884C12.2115 18.0944 15.189 18.7904 18 20.1284V5.82135ZM6 17.5829V8.38635C4.98 8.42685 3.9015 8.45085 2.988 8.46585C2.19351 8.47686 1.43513 8.79951 0.876245 9.36429C0.317355 9.92907 0.00267717 10.6908 0 11.4854L0 14.4854C0 16.1444 1.344 17.4794 2.991 17.4989C3.23901 17.5019 3.48702 17.5059 3.735 17.5109C4.49026 17.5259 5.24531 17.5499 6 17.5829ZM8.085 19.2044C8.5125 19.2359 8.9385 19.2749 9.36 19.3214L9.7395 21.8564C9.7808 22.0733 9.77368 22.2967 9.71867 22.5105C9.66365 22.7244 9.56209 22.9235 9.42124 23.0936C9.28039 23.2637 9.10372 23.4006 8.90385 23.4945C8.70398 23.5884 8.48583 23.637 8.265 23.6369H7.443C7.15143 23.6368 6.86619 23.5518 6.62217 23.3923C6.37815 23.2327 6.18592 23.0055 6.069 22.7384L4.098 19.0184C4.94438 19.0395 5.79045 19.0715 6.636 19.1144C7.1265 19.1399 7.611 19.1699 8.085 19.2044Z" fill="white"/>
</svg>
