<svg width="12" height="16" viewBox="0 0 12 16" fill="none" xmlns="http://www.w3.org/2000/svg">
  <path d="M7.85718 0.509846V4.12737H11.5225L7.85718 0.509846Z" fill="#2CA9E0"/>
  <path d="M9.40217 6.93245L5.51372 11.3787C5.44998 11.4424 5.37029 11.4902 5.29061 11.4902H5.27468C5.195 11.4902 5.11531 11.4583 5.05157 11.4105L2.74081 9.25914C2.43802 8.97229 2.40615 8.51013 2.67707 8.19141L2.8683 7.95237C3.01173 7.77707 3.23484 7.66551 3.47388 7.66551C3.66512 7.66551 3.84041 7.72926 3.98384 7.85675L5.21093 8.94041L8.03165 5.72129C8.17508 5.54599 8.39818 5.45037 8.62129 5.45037C8.81252 5.45037 9.00376 5.51412 9.13125 5.64161L9.35436 5.83284C9.65715 6.1197 9.68902 6.61372 9.40217 6.93245Z" fill="#CCE7F6"/>
  <path d="M12 4.1753C12 4.06374 11.9522 3.96813 11.8725 3.92032L8.04781 0.0956175C8.03187 0.0796813 8 0.063745 7.98406 0.0478088C7.98406 0.0478088 7.96813 0.0478088 7.96813 0.0318725C7.93625 0.0159363 7.92032 0.0159363 7.88845 0C7.87251 0 7.84064 0 7.8247 0H0.318725C0.143426 0 0 0.143426 0 0.318725V11.8247V11.9681V15.1076C0 15.2829 0.143426 15.4263 0.318725 15.4263H11.6653C11.8406 15.4263 11.9841 15.2829 11.9841 15.1076V4.22311C12 4.20717 12 4.19123 12 4.1753ZM10.8845 3.85657H8.14343V1.11554L10.8845 3.85657ZM0.653386 14.7888V11.9681V11.8406V0.653386H7.49004V4.1753C7.49004 4.3506 7.63347 4.49402 7.80876 4.49402H11.3307V14.7888H0.653386Z" fill="#333333"/>
  <path d="M9.33871 5.84862L9.1156 5.65738C8.97218 5.52989 8.79688 5.46615 8.60564 5.46615C8.38253 5.46615 8.17536 5.56177 8.016 5.73706L5.19528 8.94025L3.96819 7.85659C3.82477 7.7291 3.64947 7.66535 3.45823 7.66535C3.21919 7.66535 2.99608 7.7769 2.85265 7.9522L2.66142 8.19125C2.40644 8.50997 2.43831 8.97212 2.72516 9.25898L5.03592 11.4104C5.09967 11.4582 5.17935 11.4901 5.25903 11.4901H5.27496C5.37058 11.4901 5.45026 11.4422 5.49807 11.3785L9.40245 6.93228C9.68931 6.61356 9.65743 6.11953 9.33871 5.84862ZM8.92437 6.502L5.25903 10.6932L3.18732 8.78089C3.13951 8.73308 3.13951 8.6534 3.17138 8.60559L3.36261 8.36655C3.39449 8.31874 3.4423 8.31874 3.45823 8.31874C3.47417 8.31874 3.50604 8.31874 3.53791 8.35061L5.00405 9.64145C5.06779 9.70519 5.16341 9.72113 5.24309 9.72113C5.32277 9.72113 5.40245 9.67332 5.4662 9.60957L8.49409 6.13547C8.52596 6.1036 8.57377 6.08766 8.58971 6.08766C8.60564 6.08766 8.63751 6.08766 8.66939 6.11953L8.89249 6.31077C8.95624 6.37451 8.95624 6.4542 8.92437 6.502Z" fill="#333333"/>
</svg>

