<svg width="12" height="16" viewBox="0 0 12 16" fill="none" xmlns="http://www.w3.org/2000/svg">
  <path d="M10.1846 1.28418H1.8894V3.82293H10.1846V1.28418Z" fill="#2CA9E0"/>
  <path d="M4.44293 4.8855H1.74182V7.58661H4.44293V4.8855Z" fill="#CCE7F6"/>
  <path d="M4.44293 9.52026H1.74182V12.2214H4.44293V9.52026Z" fill="#CCE7F6"/>
  <path d="M11.69 0H0.295203C0.132841 0 0 0.132841 0 0.295203V15.1587C0 15.321 0.132841 15.4539 0.295203 15.4539H11.69C11.8524 15.4539 11.9852 15.321 11.9852 15.1587V0.295203C12 0.132841 11.8672 0 11.69 0ZM11.3948 14.8635H0.605166V0.605166H11.3948V14.8635Z" fill="white"/>
  <path d="M2.92239 6.98153C2.84859 6.98153 2.77479 6.95201 2.73051 6.90773L2.2877 6.52396C2.16962 6.42064 2.15486 6.22876 2.25818 6.09592C2.3615 5.97784 2.55338 5.96308 2.68622 6.0664L2.89287 6.25828L3.46851 5.57931C3.57183 5.44647 3.76371 5.43171 3.89656 5.54979C4.0294 5.65311 4.04416 5.845 3.92608 5.97784L3.15855 6.87821C3.09951 6.93725 3.02571 6.98153 2.95191 6.98153C2.93715 6.98153 2.92239 6.98153 2.92239 6.98153Z" fill="#2E2E2E"/>
  <path d="M4.59021 4.4281H1.57914C1.41678 4.4281 1.28394 4.56094 1.28394 4.7233V7.71961C1.28394 7.88197 1.41678 8.01482 1.57914 8.01482H4.57545C4.73781 8.01482 4.87065 7.88197 4.87065 7.71961V4.7233C4.88541 4.56094 4.75257 4.4281 4.59021 4.4281ZM4.28024 7.42441H1.8891V5.03327H4.28024V7.42441Z" fill="white"/>
  <path d="M2.92239 11.6163C2.84859 11.6163 2.77479 11.5868 2.73051 11.5425L2.2877 11.1587C2.16962 11.0554 2.15486 10.8635 2.25818 10.7307C2.3615 10.6126 2.55338 10.5978 2.68622 10.7012L2.89287 10.893L3.46851 10.2141C3.57183 10.0812 3.76371 10.0665 3.89656 10.1846C4.0294 10.2879 4.04416 10.4798 3.92608 10.6126L3.14379 11.513C3.08475 11.572 3.01095 11.6163 2.93715 11.6163H2.92239Z" fill="#2E2E2E"/>
  <path d="M4.59021 9.06287H1.57914C1.41678 9.06287 1.28394 9.19571 1.28394 9.35807V12.3544C1.28394 12.5167 1.41678 12.6496 1.57914 12.6496H4.57545C4.73781 12.6496 4.87065 12.5167 4.87065 12.3544V9.35807C4.88541 9.19571 4.75257 9.06287 4.59021 9.06287ZM4.28024 12.0592H1.8891V9.66803H4.28024V12.0592Z" fill="white"/>
  <path d="M8.17691 5.4908H5.56437C5.40201 5.4908 5.26917 5.35796 5.26917 5.19559C5.26917 5.03323 5.40201 4.90039 5.56437 4.90039H8.19167C8.35404 4.90039 8.48688 5.03323 8.48688 5.19559C8.48688 5.3432 8.35404 5.4908 8.17691 5.4908Z" fill="white"/>
  <path d="M6.87802 10.1253H5.56437C5.40201 10.1253 5.26917 9.99248 5.26917 9.83012C5.26917 9.66775 5.40201 9.53491 5.56437 9.53491H6.87802C7.04038 9.53491 7.17322 9.66775 7.17322 9.83012C7.18798 9.99248 7.04038 10.1253 6.87802 10.1253Z" fill="white"/>
  <path d="M6.90744 7.70479H5.59379C5.43143 7.70479 5.29858 7.57194 5.29858 7.40958C5.29858 7.24722 5.43143 7.11438 5.59379 7.11438H6.90744C7.0698 7.11438 7.20264 7.24722 7.20264 7.40958C7.20264 7.57194 7.0698 7.70479 6.90744 7.70479Z" fill="white"/>
  <path d="M9.23971 10.1253H7.92606C7.7637 10.1253 7.63086 9.99248 7.63086 9.83012C7.63086 9.66775 7.7637 9.53491 7.92606 9.53491H9.23971C9.40207 9.53491 9.53491 9.66775 9.53491 9.83012C9.53491 9.99248 9.40207 10.1253 9.23971 10.1253Z" fill="white"/>
  <path d="M6.5533 6.53865H5.56437C5.40201 6.53865 5.26917 6.40581 5.26917 6.24345C5.26917 6.08108 5.40201 5.94824 5.56437 5.94824H6.5533C6.71566 5.94824 6.8485 6.08108 6.8485 6.24345C6.8485 6.39105 6.71566 6.53865 6.5533 6.53865Z" fill="white"/>
  <path d="M10.4505 6.53865H7.69034C7.52798 6.53865 7.39514 6.40581 7.39514 6.24345C7.39514 6.08108 7.52798 5.94824 7.69034 5.94824H10.4505C10.6129 5.94824 10.7457 6.08108 10.7457 6.24345C10.7457 6.39105 10.6129 6.53865 10.4505 6.53865Z" fill="white"/>
  <path d="M8.32452 11.2768H5.56437C5.40201 11.2768 5.26917 11.144 5.26917 10.9816C5.26917 10.8192 5.40201 10.6864 5.56437 10.6864H8.32452C8.48688 10.6864 8.61972 10.8192 8.61972 10.9816C8.63448 11.144 8.50164 11.2768 8.32452 11.2768Z" fill="white"/>
  <path d="M7.20307 12.3394H5.50565C5.34329 12.3394 5.21045 12.2066 5.21045 12.0442C5.21045 11.8819 5.34329 11.749 5.50565 11.749H7.20307C7.36543 11.749 7.49827 11.8819 7.49827 12.0442C7.49827 12.2066 7.36543 12.3394 7.20307 12.3394Z" fill="white"/>
</svg>
