<svg width="12" height="16" viewBox="0 0 12 16" fill="none" xmlns="http://www.w3.org/2000/svg">
  <path d="M9.00412 0.318725V3.09163C9.00412 3.26693 8.8607 3.41036 8.6854 3.41036H3.31488C3.13958 3.41036 2.99615 3.26693 2.99615 3.09163V0.318725C2.99615 0.143426 3.13958 0 3.31488 0H3.66548C4.14356 0 4.54197 0.398406 4.54197 0.876494L4.55791 0.89243H7.47424L7.49018 0.876494C7.49018 0.398406 7.87265 0 8.36667 0H8.70133C8.86069 0 9.00412 0.143426 9.00412 0.318725Z" fill="#2CA9E0"/>
  <path d="M10.4538 5.37061H1.25861V13.4662H10.4538V5.37061Z" fill="#CCE7F6"/>
  <path d="M11.6653 15.8286H0.318725C0.143426 15.8286 0 15.6852 0 15.5099V1.72107C0 1.54577 0.143426 1.40234 0.318725 1.40234H3.2988C3.4741 1.40234 3.61753 1.54577 3.61753 1.72107C3.61753 1.89637 3.4741 2.03979 3.2988 2.03979H0.653386V15.1912H11.3466V2.03979H8.68526C8.50996 2.03979 8.36653 1.89637 8.36653 1.72107C8.36653 1.54577 8.50996 1.40234 8.68526 1.40234H11.6813C11.8566 1.40234 12 1.54577 12 1.72107V15.5099C12 15.6852 11.8566 15.8286 11.6653 15.8286Z" fill="white"/>
  <path d="M8.6851 0H8.35044C7.87235 0 7.47394 0.398406 7.47394 0.876494L7.45801 0.89243H4.54167L4.52574 0.876494C4.52574 0.398406 4.14327 0 3.64924 0H3.29864C3.12335 0 2.97992 0.143426 2.97992 0.318725V3.09163C2.97992 3.26693 3.12335 3.41036 3.29864 3.41036H8.66916C8.84446 3.41036 8.98789 3.26693 8.98789 3.09163V0.318725C9.00382 0.143426 8.8604 0 8.6851 0ZM8.35044 2.77291H3.63331V0.653386H3.64924C3.77673 0.653386 3.87235 0.749004 3.87235 0.876494C3.87235 1.24303 4.17514 1.54582 4.54167 1.54582H7.45801C7.82454 1.54582 8.12733 1.24303 8.12733 0.876494C8.12733 0.749004 8.22295 0.653386 8.35044 0.653386H8.36637V2.77291H8.35044Z" fill="white"/>
  <path d="M9.35475 7.66528H4.98822C4.81292 7.66528 4.66949 7.52186 4.66949 7.34656C4.66949 7.17126 4.81292 7.02783 4.98822 7.02783H9.35475C9.53005 7.02783 9.67348 7.17126 9.67348 7.34656C9.68942 7.52186 9.54599 7.66528 9.35475 7.66528Z" fill="#111111"/>
  <path d="M9.35475 9.08374H4.98822C4.81292 9.08374 4.66949 8.94031 4.66949 8.76501C4.66949 8.58972 4.81292 8.44629 4.98822 8.44629H9.35475C9.53005 8.44629 9.67348 8.58972 9.67348 8.76501C9.68942 8.94031 9.54599 9.08374 9.35475 9.08374Z" fill="#111111"/>
  <path d="M9.35475 10.4861H4.98822C4.81292 10.4861 4.66949 10.3427 4.66949 10.1674C4.66949 9.99206 4.81292 9.84863 4.98822 9.84863H9.35475C9.53005 9.84863 9.67348 9.99206 9.67348 10.1674C9.68942 10.3427 9.54599 10.4861 9.35475 10.4861Z" fill="#111111"/>
  <path d="M9.35475 11.9044H4.98822C4.81292 11.9044 4.66949 11.761 4.66949 11.5857C4.66949 11.4104 4.81292 11.267 4.98822 11.267H9.35475C9.53005 11.267 9.67348 11.4104 9.67348 11.5857C9.68942 11.761 9.54599 11.9044 9.35475 11.9044Z" fill="#111111"/>
  <path d="M2.90028 8.39837C2.82059 8.39837 2.74091 8.3665 2.6931 8.31869L2.15127 7.8406C2.02378 7.72905 2.00785 7.52188 2.1194 7.37845C2.23095 7.25096 2.43812 7.23502 2.58155 7.34658L2.8684 7.60156L3.60147 6.741C3.71302 6.59757 3.9202 6.58164 4.06362 6.70913C4.20705 6.82068 4.22298 7.02785 4.09549 7.17128L3.15526 8.28682C3.09151 8.35056 3.01183 8.39837 2.93215 8.39837C2.91621 8.39837 2.90028 8.39837 2.90028 8.39837Z" fill="#111111"/>
  <path d="M2.90028 10.3266C2.82059 10.3266 2.74091 10.2947 2.6931 10.2469L2.15127 9.76882C2.02378 9.65727 2.00785 9.4501 2.1194 9.30667C2.23095 9.17918 2.43812 9.16325 2.58155 9.2748L2.8684 9.52978L3.60147 8.66922C3.71302 8.5258 3.9202 8.50986 4.06362 8.63735C4.20705 8.7489 4.22298 8.95607 4.09549 9.0995L3.15526 10.215C3.09151 10.2788 3.01183 10.3266 2.93215 10.3266C2.91621 10.3266 2.90028 10.3266 2.90028 10.3266Z" fill="#111111"/>
  <path d="M2.90028 12.2072C2.82059 12.2072 2.74091 12.1753 2.6931 12.1275L2.15127 11.6494C2.02378 11.5379 2.00785 11.3307 2.1194 11.1873C2.23095 11.0598 2.43812 11.0439 2.58155 11.1554L2.8684 11.4104L3.60147 10.5498C3.71302 10.4064 3.9202 10.3905 4.06362 10.518C4.20705 10.6295 4.22298 10.8367 4.09549 10.9801L3.15526 12.0957C3.09151 12.1594 3.01183 12.2072 2.93215 12.2072C2.91621 12.2072 2.90028 12.2072 2.90028 12.2072Z" fill="#111111"/>
</svg>
