<svg width="12" height="16" viewBox="0 0 12 16" fill="none" xmlns="http://www.w3.org/2000/svg">
  <path d="M11.5577 0.442017H7.61035V4.38938H11.5577V0.442017Z" fill="#FFC7C8"/>
  <path d="M3.34705 4.18425C3.34705 3.55267 3.8681 3.03162 4.49968 3.03162C4.51547 3.03162 4.51547 3.03162 4.53126 3.03162V0.347412H0.299683V4.48425H3.34705V4.18425Z" fill="#CCE7F6"/>
  <path d="M2.17911 3.36311C2.10016 3.36311 2.02121 3.33153 1.97384 3.28416L1.35806 2.74732C1.23174 2.63679 1.21595 2.43153 1.32648 2.28943C1.437 2.16311 1.64227 2.14732 1.78437 2.25785L2.14753 2.57364L3.00016 1.5789C3.11069 1.43679 3.31595 1.421 3.45806 1.54732C3.60016 1.65785 3.61595 1.86311 3.48963 2.00522L2.41595 3.26837C2.36858 3.31574 2.28963 3.36311 2.21069 3.36311C2.1949 3.36311 2.1949 3.36311 2.17911 3.36311Z" fill="white"/>
  <path d="M2.73158 4.81579H0.315789C0.142105 4.81579 0 4.67368 0 4.5V0.315789C0 0.142105 0.142105 0 0.315789 0H4.5C4.67368 0 4.81579 0.142105 4.81579 0.315789V2.44737C4.81579 2.62105 4.67368 2.76316 4.5 2.76316C4.32632 2.76316 4.18421 2.62105 4.18421 2.44737V0.647368H0.647368V4.18421H2.73158C2.90526 4.18421 3.04737 4.32631 3.04737 4.5C3.06316 4.67368 2.92105 4.81579 2.73158 4.81579Z" fill="white"/>
  <path d="M11.6684 4.81579H7.49999C7.32631 4.81579 7.1842 4.67368 7.1842 4.5V0.315789C7.1842 0.142105 7.32631 0 7.49999 0H11.6684C11.8421 0 11.9842 0.142105 11.9842 0.315789V4.48421C12 4.67368 11.8579 4.81579 11.6684 4.81579ZM7.81578 4.18421H11.3526V0.647368H7.81578V4.18421Z" fill="white"/>
  <path d="M10.0422 2.41568L10.5474 1.91042C10.6737 1.7841 10.6737 1.57884 10.5474 1.45252C10.4211 1.32621 10.2158 1.32621 10.0895 1.45252L9.58426 1.95779L9.079 1.45252C8.95268 1.32621 8.74742 1.32621 8.6211 1.45252C8.49479 1.57884 8.49479 1.7841 8.6211 1.91042L9.12636 2.41568L8.6211 2.92095C8.49479 3.04726 8.49479 3.25253 8.6211 3.37884C8.68426 3.442 8.76321 3.47358 8.84216 3.47358C8.9211 3.47358 9.00005 3.442 9.06321 3.37884L9.56847 2.87358L10.0737 3.37884C10.1369 3.442 10.2158 3.47358 10.2948 3.47358C10.3737 3.47358 10.4527 3.442 10.5158 3.37884C10.6421 3.25253 10.6421 3.04726 10.5158 2.92095L10.0422 2.41568Z" fill="white"/>
  <path d="M9.56845 7.51583C9.36319 7.51583 9.18951 7.56319 9.01582 7.65793C8.88951 7.15267 8.43161 6.75793 7.87898 6.75793C7.67372 6.75793 7.48424 6.8053 7.32635 6.90004C7.20003 6.39477 6.74214 6.01583 6.18951 6.01583C6.00003 6.01583 5.82635 6.0632 5.68424 6.14214V4.18425C5.68424 3.55267 5.16319 3.03162 4.51582 3.03162C3.88424 3.03162 3.36319 3.55267 3.36319 4.18425V9.04741C2.13161 8.33688 1.51582 8.58951 1.21582 8.96846C0.694772 9.61583 0.994772 10.9106 1.57898 11.4632C2.92109 12.8053 3.9474 15.2632 3.9474 15.2948C3.99477 15.4369 4.12109 15.5316 4.26319 15.5316H9.31582C9.48951 15.5316 9.63161 15.3895 9.63161 15.2158C9.69477 13.9211 10.7211 11.479 10.7211 11.4474C10.7211 11.4316 10.7369 11.4158 10.7369 11.3842C10.7369 11.3842 10.7369 11.3842 10.7369 11.3685C10.7369 11.3527 10.7369 11.3527 10.7369 11.3369V8.65267C10.7369 8.03688 10.2158 7.51583 9.56845 7.51583ZM10.0895 11.3053C9.97898 11.6842 9.17372 13.4474 9.01582 14.8842H4.48424C4.21582 14.0474 3.26846 12.2685 2.0053 10.9895C1.61056 10.6106 1.42109 9.67898 1.68951 9.36319C1.91056 9.09477 2.52635 9.26846 3.33161 9.8053V11.3527C3.33161 11.5264 3.47372 11.6685 3.6474 11.6685C3.82109 11.6685 3.96319 11.5264 3.96319 11.3527V4.18425C3.96319 3.90004 4.20003 3.6632 4.50003 3.6632C4.78424 3.6632 5.0053 3.90004 5.0053 4.18425V8.85793C5.0053 9.03162 5.1474 9.17372 5.32109 9.17372C5.49477 9.17372 5.63688 9.03162 5.63688 8.85793V7.18425C5.63688 6.90004 5.87372 6.67898 6.17372 6.67898C6.45793 6.67898 6.67898 6.91583 6.67898 7.18425V9.22109C6.67898 9.39477 6.82109 9.53688 6.99477 9.53688C7.16845 9.53688 7.31056 9.39477 7.31056 9.22109V7.92635C7.31056 7.64214 7.5474 7.42109 7.8474 7.42109C8.13161 7.42109 8.35266 7.65793 8.35266 7.92635V9.63162C8.35266 9.8053 8.49477 9.94741 8.66845 9.94741C8.84214 9.94741 8.98424 9.8053 8.98424 9.63162V8.66846C8.98424 8.38425 9.22108 8.1632 9.52108 8.1632C9.80529 8.1632 10.0421 8.40004 10.0421 8.66846V11.3053H10.0895Z" fill="white"/>
</svg>
