<svg width="24" height="25" viewBox="0 0 24 25" fill="none" xmlns="http://www.w3.org/2000/svg">
<g clip-path="url(#clip0_8119_472)">
<path d="M15.1005 2.29016C14.6968 1.87697 14.2145 1.54865 13.682 1.32449C13.1496 1.10033 12.5777 0.984863 12 0.984863C11.4223 0.984863 10.8504 1.10033 10.318 1.32449C9.78554 1.54865 9.30327 1.87697 8.89952 2.29016L7.96651 3.24716L6.63151 3.23066C6.05364 3.22382 5.48023 3.33259 4.94501 3.55059C4.40978 3.76858 3.92355 4.0914 3.5149 4.50004C3.10626 4.90869 2.78344 5.39493 2.56545 5.93015C2.34745 6.46537 2.23867 7.03878 2.24551 7.61666L2.26051 8.95166L1.30651 9.88466C0.893324 10.2884 0.565005 10.7707 0.340848 11.3031C0.116692 11.8356 0.0012207 12.4075 0.0012207 12.9852C0.0012207 13.5629 0.116692 14.1347 0.340848 14.6672C0.565005 15.1996 0.893324 15.6819 1.30651 16.0857L2.26201 17.0187L2.24551 18.3537C2.23867 18.9315 2.34745 19.5049 2.56545 20.0402C2.78344 20.5754 3.10626 21.0616 3.5149 21.4703C3.92355 21.8789 4.40978 22.2017 4.94501 22.4197C5.48023 22.6377 6.05364 22.7465 6.63151 22.7397L7.96651 22.7247L8.89952 23.6787C9.30327 24.0918 9.78554 24.4202 10.318 24.6443C10.8504 24.8685 11.4223 24.9839 12 24.9839C12.5777 24.9839 13.1496 24.8685 13.682 24.6443C14.2145 24.4202 14.6968 24.0918 15.1005 23.6787L16.0335 22.7232L17.3685 22.7397C17.9464 22.7465 18.5198 22.6377 19.055 22.4197C19.5902 22.2017 20.0765 21.8789 20.4851 21.4703C20.8938 21.0616 21.2166 20.5754 21.4346 20.0402C21.6526 19.5049 21.7614 18.9315 21.7545 18.3537L21.7395 17.0187L22.6935 16.0857C23.1067 15.6819 23.435 15.1996 23.6592 14.6672C23.8833 14.1347 23.9988 13.5629 23.9988 12.9852C23.9988 12.4075 23.8833 11.8356 23.6592 11.3031C23.435 10.7707 23.1067 10.2884 22.6935 9.88466L21.738 8.95166L21.7545 7.61666C21.7614 7.03878 21.6526 6.46537 21.4346 5.93015C21.2166 5.39493 20.8938 4.90869 20.4851 4.50004C20.0765 4.0914 19.5902 3.76858 19.055 3.55059C18.5198 3.33259 17.9464 3.22382 17.3685 3.23066L16.0335 3.24566L15.1005 2.29166V2.29016ZM15.531 11.2662L11.031 15.7662C10.9613 15.836 10.8786 15.8914 10.7875 15.9292C10.6963 15.967 10.5987 15.9865 10.5 15.9865C10.4014 15.9865 10.3037 15.967 10.2126 15.9292C10.1214 15.8914 10.0387 15.836 9.96902 15.7662L7.71901 13.5162C7.64928 13.4464 7.59397 13.3636 7.55623 13.2725C7.51849 13.1814 7.49907 13.0838 7.49907 12.9852C7.49907 12.8865 7.51849 12.7889 7.55623 12.6978C7.59397 12.6067 7.64928 12.5239 7.71901 12.4542C7.78875 12.3844 7.87153 12.3291 7.96264 12.2914C8.05375 12.2536 8.1514 12.2342 8.25001 12.2342C8.34863 12.2342 8.44628 12.2536 8.53739 12.2914C8.6285 12.3291 8.71128 12.3844 8.78101 12.4542L10.5 14.1747L14.469 10.2042C14.6098 10.0633 14.8009 9.98421 15 9.98421C15.1992 9.98421 15.3902 10.0633 15.531 10.2042C15.6718 10.345 15.751 10.536 15.751 10.7352C15.751 10.9343 15.6718 11.1253 15.531 11.2662Z" fill="white"/>
</g>
<defs>
<clipPath id="clip0_8119_472">
<rect width="24" height="24" fill="white" transform="translate(0 0.985352)"/>
</clipPath>
</defs>
</svg>