<svg width="24" height="25" viewBox="0 0 24 25" fill="none" xmlns="http://www.w3.org/2000/svg">
<g clip-path="url(#clip0_8119_3482)">
<path d="M10.5 4.73535C10.5 4.53644 10.579 4.34567 10.7197 4.20502C10.8603 4.06437 11.0511 3.98535 11.25 3.98535H21.75C21.9489 3.98535 22.1397 4.06437 22.2803 4.20502C22.421 4.34567 22.5 4.53644 22.5 4.73535V6.23535C22.5 6.43426 22.421 6.62503 22.2803 6.76568C22.1397 6.90633 21.9489 6.98535 21.75 6.98535H11.25C11.0511 6.98535 10.8603 6.90633 10.7197 6.76568C10.579 6.62503 10.5 6.43426 10.5 6.23535V4.73535ZM3 2.48535C2.20435 2.48535 1.44129 2.80142 0.87868 3.36403C0.316071 3.92664 0 4.6897 0 5.48535L0 8.48535C0 9.281 0.316071 10.0441 0.87868 10.6067C1.44129 11.1693 2.20435 11.4854 3 11.4854H6C6.79565 11.4854 7.55871 11.1693 8.12132 10.6067C8.68393 10.0441 9 9.281 9 8.48535V5.48535C9 4.6897 8.68393 3.92664 8.12132 3.36403C7.55871 2.80142 6.79565 2.48535 6 2.48535H3ZM3 14.4854C2.20435 14.4854 1.44129 14.8014 0.87868 15.364C0.316071 15.9266 0 16.6897 0 17.4854L0 20.4854C0 21.281 0.316071 22.0441 0.87868 22.6067C1.44129 23.1693 2.20435 23.4854 3 23.4854H6C6.79565 23.4854 7.55871 23.1693 8.12132 22.6067C8.68393 22.0441 9 21.281 9 20.4854V17.4854C9 16.6897 8.68393 15.9266 8.12132 15.364C7.55871 14.8014 6.79565 14.4854 6 14.4854H3ZM4.281 9.01635C4.21133 9.0862 4.12857 9.14161 4.03745 9.17942C3.94633 9.21723 3.84865 9.23669 3.75 9.23669C3.65135 9.23669 3.55367 9.21723 3.46255 9.17942C3.37143 9.14161 3.28867 9.0862 3.219 9.01635L1.719 7.51635C1.64927 7.44662 1.59395 7.36384 1.55622 7.27273C1.51848 7.18162 1.49905 7.08397 1.49905 6.98535C1.49905 6.88674 1.51848 6.78909 1.55622 6.69798C1.59395 6.60687 1.64927 6.52408 1.719 6.45435C1.78873 6.38462 1.87152 6.32931 1.96262 6.29157C2.05373 6.25383 2.15138 6.2344 2.25 6.2344C2.34862 6.2344 2.44627 6.25383 2.53737 6.29157C2.62848 6.32931 2.71127 6.38462 2.781 6.45435L3.75 7.42485L6.219 4.95435C6.28873 4.88462 6.37152 4.82931 6.46262 4.79157C6.55373 4.75383 6.65138 4.7344 6.75 4.7344C6.84862 4.7344 6.94627 4.75383 7.03738 4.79157C7.12848 4.82931 7.21127 4.88462 7.281 4.95435C7.35073 5.02408 7.40605 5.10687 7.44379 5.19798C7.48152 5.28909 7.50095 5.38674 7.50095 5.48535C7.50095 5.58397 7.48152 5.68162 7.44379 5.77273C7.40605 5.86384 7.35073 5.94662 7.281 6.01635L4.281 9.01635ZM4.281 21.0164C4.21133 21.0862 4.12857 21.1416 4.03745 21.1794C3.94633 21.2172 3.84865 21.2367 3.75 21.2367C3.65135 21.2367 3.55367 21.2172 3.46255 21.1794C3.37143 21.1416 3.28867 21.0862 3.219 21.0164L1.719 19.5164C1.57817 19.3755 1.49905 19.1845 1.49905 18.9854C1.49905 18.7862 1.57817 18.5952 1.719 18.4544C1.85983 18.3135 2.05084 18.2344 2.25 18.2344C2.44916 18.2344 2.64017 18.3135 2.781 18.4544L3.75 19.4249L6.219 16.9544C6.35983 16.8135 6.55084 16.7344 6.75 16.7344C6.94916 16.7344 7.14017 16.8135 7.281 16.9544C7.42183 17.0952 7.50095 17.2862 7.50095 17.4854C7.50095 17.6845 7.42183 17.8755 7.281 18.0164L4.281 21.0164ZM10.5 16.7354C10.5 16.5364 10.579 16.3457 10.7197 16.205C10.8603 16.0644 11.0511 15.9854 11.25 15.9854H21.75C21.9489 15.9854 22.1397 16.0644 22.2803 16.205C22.421 16.3457 22.5 16.5364 22.5 16.7354V18.2354C22.5 18.4343 22.421 18.625 22.2803 18.7657C22.1397 18.9063 21.9489 18.9854 21.75 18.9854H11.25C11.0511 18.9854 10.8603 18.9063 10.7197 18.7657C10.579 18.625 10.5 18.4343 10.5 18.2354V16.7354ZM10.5 9.23535C10.5 9.03644 10.579 8.84567 10.7197 8.70502C10.8603 8.56437 11.0511 8.48535 11.25 8.48535H18.75C18.9489 8.48535 19.1397 8.56437 19.2803 8.70502C19.421 8.84567 19.5 9.03644 19.5 9.23535C19.5 9.43426 19.421 9.62503 19.2803 9.76568C19.1397 9.90633 18.9489 9.98535 18.75 9.98535H11.25C11.0511 9.98535 10.8603 9.90633 10.7197 9.76568C10.579 9.62503 10.5 9.43426 10.5 9.23535ZM10.5 21.2354C10.5 21.0364 10.579 20.8457 10.7197 20.705C10.8603 20.5644 11.0511 20.4854 11.25 20.4854H18.75C18.9489 20.4854 19.1397 20.5644 19.2803 20.705C19.421 20.8457 19.5 21.0364 19.5 21.2354C19.5 21.4343 19.421 21.625 19.2803 21.7657C19.1397 21.9063 18.9489 21.9854 18.75 21.9854H11.25C11.0511 21.9854 10.8603 21.9063 10.7197 21.7657C10.579 21.625 10.5 21.4343 10.5 21.2354Z" fill="white"/>
</g>
<defs>
<clipPath id="clip0_8119_3482">
<rect width="24" height="24" fill="white" transform="translate(0 0.985352)"/>
</clipPath>
</defs>
</svg>