<svg width="14" height="13" viewBox="0 0 14 13" fill="none" xmlns="http://www.w3.org/2000/svg">
  <path d="M2.62891 9.65155C3.60631 11.0119 5.20816 11.8825 7.02721 11.8825C10.0137 11.8825 12.4572 9.4339 12.4572 6.44117V6.16911H13.0002L11.6427 4.26465L10.5567 6.16911H11.0997V6.44117C11.0997 7.17575 10.9097 7.88312 10.5567 8.48167" stroke="white" stroke-miterlimit="10"/>
  <path d="M11.3713 3.23094C10.3939 1.87061 8.79205 1 6.973 1C3.9865 1 1.543 3.44859 1.543 6.44132V6.71338H1L2.3575 8.61784L3.4435 6.71338H2.9005V6.44132C2.9005 5.35305 3.30775 4.40082 3.9865 3.66624" stroke="white" stroke-miterlimit="10"/>
  <path d="M6.89123 8.34563C8.01582 8.34563 8.92748 7.43207 8.92748 6.30514C8.92748 5.17821 8.01582 4.26465 6.89123 4.26465C5.76664 4.26465 4.85498 5.17821 4.85498 6.30514C4.85498 7.43207 5.76664 8.34563 6.89123 8.34563Z" stroke="white" stroke-miterlimit="10"/>
  <path d="M5.93994 6.16922L6.75444 6.98542L7.84044 5.35303" stroke="white" stroke-miterlimit="10"/>
</svg>
