<svg width="12" height="12" viewBox="0 0 12 12" fill="none" xmlns="http://www.w3.org/2000/svg">
  <g clip-path="url(#clip0_7430_75704)">
    <path d="M10.5 0.75C10.6989 0.75 10.8897 0.829018 11.0303 0.96967C11.171 1.11032 11.25 1.30109 11.25 1.5V10.5C11.25 10.6989 11.171 10.8897 11.0303 11.0303C10.8897 11.171 10.6989 11.25 10.5 11.25H1.5C1.30109 11.25 1.11032 11.171 0.96967 11.0303C0.829018 10.8897 0.75 10.6989 0.75 10.5V1.5C0.75 1.30109 0.829018 1.11032 0.96967 0.96967C1.11032 0.829018 1.30109 0.75 1.5 0.75H10.5ZM1.5 0C1.10218 0 0.720644 0.158035 0.43934 0.43934C0.158035 0.720644 0 1.10218 0 1.5L0 10.5C0 10.8978 0.158035 11.2794 0.43934 11.5607C0.720644 11.842 1.10218 12 1.5 12H10.5C10.8978 12 11.2794 11.842 11.5607 11.5607C11.842 11.2794 12 10.8978 12 10.5V1.5C12 1.10218 11.842 0.720644 11.5607 0.43934C11.2794 0.158035 10.8978 0 10.5 0L1.5 0Z" fill="#737373"/>
    <path d="M3 6C3 5.90054 3.03951 5.80516 3.10984 5.73484C3.18016 5.66451 3.27554 5.625 3.375 5.625H8.625C8.72446 5.625 8.81984 5.66451 8.89017 5.73484C8.96049 5.80516 9 5.90054 9 6C9 6.09946 8.96049 6.19484 8.89017 6.26517C8.81984 6.33549 8.72446 6.375 8.625 6.375H3.375C3.27554 6.375 3.18016 6.33549 3.10984 6.26517C3.03951 6.19484 3 6.09946 3 6Z" fill="#737373"/>
  </g>
  <defs>
    <clipPath id="clip0_7430_75704">
      <rect width="12" height="12" fill="white"/>
    </clipPath>
  </defs>
</svg>