<svg width="16" height="22" viewBox="0 0 16 22" fill="none" xmlns="http://www.w3.org/2000/svg">
  <path d="M4.69726 16.5651C4.88393 16.4558 5.08793 16.3491 5.30926 16.2478C5.12229 16.5266 4.92206 16.7962 4.70926 17.0558C4.33593 17.5051 4.04526 17.7438 3.8626 17.8185C3.84743 17.8249 3.83184 17.8302 3.81593 17.8345C3.80262 17.816 3.79102 17.7964 3.78126 17.7758C3.7066 17.6291 3.70926 17.4878 3.8346 17.2958C3.97593 17.0758 4.25993 16.8238 4.69726 16.5651ZM7.9706 14.3691C7.81193 14.4025 7.6546 14.4358 7.49593 14.4731C7.73095 14.0127 7.95325 13.5458 8.1626 13.0731C8.37336 13.4637 8.60022 13.8454 8.8426 14.2171C8.55326 14.2598 8.26126 14.3105 7.9706 14.3691ZM11.3373 15.6211C11.1302 15.4541 10.9363 15.2713 10.7573 15.0745C11.0613 15.0811 11.3359 15.1038 11.5733 15.1465C11.9959 15.2225 12.1946 15.3425 12.2639 15.4251C12.2858 15.4482 12.2982 15.4787 12.2986 15.5105C12.2939 15.6045 12.2665 15.696 12.2186 15.7771C12.1917 15.8421 12.1485 15.899 12.0933 15.9425C12.0657 15.9594 12.0333 15.9664 12.0013 15.9625C11.8813 15.9585 11.6573 15.8745 11.3373 15.6211ZM8.3706 9.29314C8.31726 9.61848 8.2266 9.99181 8.10393 10.3985C8.05873 10.2462 8.01915 10.0923 7.98526 9.93714C7.88393 9.46648 7.86926 9.09714 7.92393 8.84114C7.9746 8.60514 8.0706 8.51048 8.18526 8.46381C8.24676 8.4367 8.3119 8.41873 8.3786 8.41048C8.39593 8.45048 8.41593 8.53314 8.42126 8.67448C8.42793 8.83714 8.41193 9.04381 8.3706 9.29448V9.29314Z" fill="#EF6265"/>
  <path fill-rule="evenodd" clip-rule="evenodd" d="M2.66667 0H9.724C10.0776 7.55165e-05 10.4167 0.140601 10.6667 0.390667L15.6093 5.33333C15.8594 5.58332 15.9999 5.92241 16 6.276V18.6667C16 19.3739 15.719 20.0522 15.219 20.5523C14.7189 21.0524 14.0406 21.3333 13.3333 21.3333H2.66667C1.95942 21.3333 1.28115 21.0524 0.781048 20.5523C0.280951 20.0522 0 19.3739 0 18.6667V2.66667C0 1.95942 0.280951 1.28115 0.781048 0.781049C1.28115 0.280952 1.95942 0 2.66667 0V0ZM10 2V4.66667C10 5.02029 10.1405 5.35943 10.3905 5.60948C10.6406 5.85952 10.9797 6 11.3333 6H14L10 2ZM2.88667 18.224C3.00667 18.464 3.19333 18.6813 3.47067 18.7827C3.74667 18.8827 4.02 18.836 4.244 18.7427C4.668 18.5693 5.09067 18.1613 5.47867 17.6947C5.92267 17.16 6.38933 16.4587 6.84 15.6813C7.71004 15.4235 8.601 15.2423 9.50267 15.14C9.90267 15.6507 10.316 16.0907 10.716 16.4067C11.0893 16.7 11.52 16.944 11.9613 16.9627C12.2017 16.9746 12.4397 16.9102 12.6413 16.7787C12.848 16.644 13.0013 16.4493 13.1133 16.224C13.2333 15.9827 13.3067 15.7307 13.2973 15.4733C13.2889 15.2196 13.1949 14.9762 13.0307 14.7827C12.7293 14.4227 12.236 14.2493 11.7507 14.1627C11.1619 14.0715 10.5646 14.0491 9.97067 14.096C9.46914 13.387 9.03186 12.6347 8.664 11.848C8.99733 10.968 9.24667 10.136 9.35733 9.456C9.40533 9.16533 9.43067 8.888 9.42133 8.63733C9.41968 8.38852 9.36179 8.14329 9.252 7.92C9.18875 7.79677 9.09886 7.68916 8.98885 7.60499C8.87884 7.52081 8.75148 7.46217 8.616 7.43333C8.34667 7.376 8.06933 7.43333 7.81467 7.536C7.312 7.736 7.04667 8.16267 6.94667 8.63333C6.84933 9.08667 6.89333 9.61467 7.008 10.148C7.12533 10.6893 7.32533 11.2787 7.58133 11.8747C7.17185 12.8931 6.69892 13.8848 6.16533 14.844C5.47819 15.0602 4.81584 15.3485 4.18933 15.704C3.696 15.9973 3.25733 16.344 2.99333 16.7533C2.71333 17.188 2.62667 17.7053 2.88667 18.224Z" fill="#EF6265"/>
</svg>
