<svg width="16" height="22" viewBox="0 0 16 22" fill="none" xmlns="http://www.w3.org/2000/svg">
  <path d="M4.69775 17.0653C4.88442 16.956 5.08842 16.8493 5.30975 16.748C5.12278 17.0267 4.92255 17.2964 4.70975 17.556C4.33642 18.0053 4.04575 18.244 3.86309 18.3186C3.84792 18.3251 3.83233 18.3304 3.81642 18.3346C3.80311 18.3162 3.79151 18.2965 3.78175 18.276C3.70709 18.1293 3.70975 17.988 3.83509 17.796C3.97642 17.576 4.26042 17.324 4.69775 17.0653ZM7.97109 14.8693C7.81242 14.9026 7.65509 14.936 7.49642 14.9733C7.73143 14.5128 7.95374 14.046 8.16309 13.5733C8.37385 13.9639 8.60071 14.3455 8.84309 14.7173C8.55375 14.76 8.26175 14.8106 7.97109 14.8693ZM11.3378 16.1213C11.1307 15.9543 10.9367 15.7715 10.7578 15.5746C11.0618 15.5813 11.3364 15.604 11.5738 15.6466C11.9964 15.7226 12.1951 15.8426 12.2644 15.9253C12.2863 15.9484 12.2986 15.9789 12.2991 16.0106C12.2944 16.1047 12.267 16.1962 12.2191 16.2773C12.1922 16.3423 12.149 16.3992 12.0938 16.4426C12.0662 16.4595 12.0338 16.4666 12.0018 16.4626C11.8818 16.4586 11.6578 16.3746 11.3378 16.1213ZM8.37109 9.79331C8.31775 10.1186 8.22709 10.492 8.10442 10.8986C8.05922 10.7464 8.01964 10.5925 7.98575 10.4373C7.88442 9.96664 7.86975 9.59731 7.92442 9.34131C7.97509 9.10531 8.07109 9.01064 8.18575 8.96398C8.24725 8.93687 8.31239 8.9189 8.37909 8.91064C8.39642 8.95064 8.41642 9.03331 8.42175 9.17464C8.42842 9.33731 8.41242 9.54398 8.37109 9.79464V9.79331Z" fill="#B1B1B1"/>
  <path fill-rule="evenodd" clip-rule="evenodd" d="M2.66667 0.5H9.724C10.0776 0.500076 10.4167 0.640601 10.6667 0.890667L15.6093 5.83333C15.8594 6.08332 15.9999 6.42241 16 6.776V19.1667C16 19.8739 15.719 20.5522 15.219 21.0523C14.7189 21.5524 14.0406 21.8333 13.3333 21.8333H2.66667C1.95942 21.8333 1.28115 21.5524 0.781048 21.0523C0.280951 20.5522 0 19.8739 0 19.1667V3.16667C0 2.45942 0.280951 1.78115 0.781048 1.28105C1.28115 0.780952 1.95942 0.5 2.66667 0.5V0.5ZM10 2.5V5.16667C10 5.52029 10.1405 5.85943 10.3905 6.10948C10.6406 6.35952 10.9797 6.5 11.3333 6.5H14L10 2.5ZM2.88667 18.724C3.00667 18.964 3.19333 19.1813 3.47067 19.2827C3.74667 19.3827 4.02 19.336 4.244 19.2427C4.668 19.0693 5.09067 18.6613 5.47867 18.1947C5.92267 17.66 6.38933 16.9587 6.84 16.1813C7.71004 15.9235 8.601 15.7423 9.50267 15.64C9.90267 16.1507 10.316 16.5907 10.716 16.9067C11.0893 17.2 11.52 17.444 11.9613 17.4627C12.2017 17.4746 12.4397 17.4102 12.6413 17.2787C12.848 17.144 13.0013 16.9493 13.1133 16.724C13.2333 16.4827 13.3067 16.2307 13.2973 15.9733C13.2889 15.7196 13.1949 15.4762 13.0307 15.2827C12.7293 14.9227 12.236 14.7493 11.7507 14.6627C11.1619 14.5715 10.5646 14.5491 9.97067 14.596C9.46914 13.887 9.03186 13.1347 8.664 12.348C8.99733 11.468 9.24667 10.636 9.35733 9.956C9.40533 9.66533 9.43067 9.388 9.42133 9.13733C9.41968 8.88852 9.36179 8.64329 9.252 8.42C9.18875 8.29677 9.09886 8.18916 8.98885 8.10499C8.87884 8.02081 8.75148 7.96217 8.616 7.93333C8.34667 7.876 8.06933 7.93333 7.81467 8.036C7.312 8.236 7.04667 8.66267 6.94667 9.13333C6.84933 9.58667 6.89333 10.1147 7.008 10.648C7.12533 11.1893 7.32533 11.7787 7.58133 12.3747C7.17185 13.3931 6.69892 14.3848 6.16533 15.344C5.47819 15.5602 4.81584 15.8485 4.18933 16.204C3.696 16.4973 3.25733 16.844 2.99333 17.2533C2.71333 17.688 2.62667 18.2053 2.88667 18.724Z" fill="#B1B1B1"/>
</svg>
