<svg width="33" height="36" viewBox="0 0 33 36" fill="none" xmlns="http://www.w3.org/2000/svg">
  <path fill-rule="evenodd" clip-rule="evenodd" d="M3.21783 19.6608L1.7802 21.0961C1.48219 21.3924 1.48016 21.8782 1.77817 22.1766L2.36206 22.7631C2.15269 23.1542 1.98355 23.5694 1.86071 24.0028L1.0191 24.0008C0.598258 24.0008 0.254003 24.3435 0.254003 24.7648L0.250009 26.7966C0.247977 27.218 0.592302 27.5627 1.01111 27.5627L1.88496 27.5647C2.01178 27.9859 2.18093 28.3891 2.38631 28.7681L1.76416 29.3909C1.46615 29.6873 1.46412 30.173 1.76212 30.4714L3.19373 31.9127C3.49174 32.209 3.97697 32.211 4.27498 31.9147L4.89917 31.2919C5.27565 31.4995 5.67842 31.6708 6.09716 31.7978V32.6727C6.09512 33.0939 6.43945 33.4387 6.85826 33.4407L8.88987 33.4448C9.30868 33.4448 9.65301 33.1021 9.65497 32.6808L9.657 31.8382C10.0899 31.7152 10.5047 31.5479 10.8953 31.3423L11.4792 31.9289C11.7752 32.2252 12.2624 32.2272 12.5604 31.9309L13.9981 30.4957C14.2961 30.1993 14.2961 29.7115 14.0001 29.4132L13.4484 28.8589C13.6739 28.4598 13.8571 28.0344 13.9941 27.5889L14.7592 27.591C15.18 27.591 15.5243 27.2482 15.5243 26.827L15.5283 24.7951C15.5303 24.3738 15.186 24.0291 14.7651 24.0271H14.0322C13.9033 23.5654 13.7221 23.126 13.4986 22.7148L14.014 22.2007C14.312 21.9044 14.312 21.4166 14.0161 21.1203L12.5845 19.679C12.2865 19.3806 11.8012 19.3806 11.5032 19.677L10.9878 20.191C10.577 19.9652 10.1401 19.7838 9.679 19.6528L9.68104 18.917C9.68307 18.4977 9.33874 18.1531 8.91993 18.151L6.88832 18.147C6.46748 18.147 6.12322 18.4897 6.12322 18.9109L6.12119 19.677C5.67624 19.812 5.24938 19.9935 4.85068 20.2172L4.29901 19.6629C4.00108 19.3645 3.51584 19.3645 3.21783 19.6608Z" fill="#838383"/>
  <path fill-rule="evenodd" clip-rule="evenodd" d="M9.01486 27.3611C8.90415 28.5322 8.64237 29.6308 8.26182 30.6105C7.90341 31.5257 7.44235 32.338 6.9007 33.0113C6.79602 33.1403 6.68727 33.2653 6.57656 33.3842C6.66317 33.4205 6.75979 33.4387 6.85845 33.4407L8.89007 33.4448C9.19011 33.4448 9.45182 33.2694 9.57668 33.0154C9.62699 32.9146 9.65523 32.7997 9.65523 32.6808L9.65727 31.8382C10.0902 31.7152 10.505 31.5479 10.8955 31.3423L11.4794 31.9289C11.7754 32.2252 12.2627 32.2272 12.5607 31.9309L13.9983 30.4957C14.2963 30.1993 14.2963 29.7115 14.0004 29.4132L13.4487 28.8589C13.6742 28.4598 13.8574 28.0344 13.9943 27.5889L14.7594 27.591C15.1803 27.591 15.5245 27.2482 15.5245 26.827L15.5285 24.7951C15.5305 24.3738 15.1862 24.0291 14.7654 24.0271H14.0324C13.9036 23.5654 13.7224 23.126 13.4989 22.7148L14.0143 22.2007C14.3123 21.9044 14.3123 21.4166 14.0163 21.1203L12.5847 19.679C12.2867 19.3806 11.8015 19.3806 11.5035 19.677L10.988 20.191C10.5773 19.9652 10.1403 19.7838 9.67927 19.6528L9.6813 18.917C9.68333 18.4977 9.33901 18.1531 8.9202 18.151L6.88858 18.147C6.7174 18.147 6.55638 18.2034 6.42948 18.3022C6.36306 18.3505 6.30462 18.411 6.2583 18.4796C7.60533 19.7354 8.59395 21.7754 8.94024 24.1782C9.04093 24.2447 9.13755 24.3193 9.22416 24.404C9.59063 24.7567 9.81815 25.2506 9.81611 25.7988C9.81408 26.3471 9.58656 26.841 9.21814 27.1918C9.15577 27.2522 9.08731 27.3107 9.01486 27.3611Z" fill="#595959"/>
  <path fill-rule="evenodd" clip-rule="evenodd" d="M7.89235 23.8662C6.82722 23.8642 5.96346 24.727 5.96143 25.7913C5.9594 26.8576 6.81916 27.7224 7.8843 27.7243C8.94943 27.7284 9.81319 26.8656 9.81522 25.7993C9.81725 24.735 8.95553 23.8682 7.89235 23.8662Z" fill="#F9F7F7"/>
  <path fill-rule="evenodd" clip-rule="evenodd" d="M8.09606 25.7973C8.09606 26.5532 7.65911 27.2063 7.0249 27.5208C7.28465 27.6518 7.57656 27.7244 7.88466 27.7244C8.3055 27.7264 8.69608 27.5914 9.0142 27.3616C9.08665 27.3112 9.15511 27.2528 9.21754 27.1922C9.58604 26.8415 9.81356 26.3476 9.81552 25.7993C9.81755 25.251 9.59003 24.7572 9.22356 24.4044C9.13696 24.3198 9.04033 24.2451 8.93964 24.1787C8.63764 23.9811 8.27923 23.8682 7.89265 23.8662C7.58259 23.8662 7.29061 23.9388 7.03289 24.0678C7.66513 24.3842 8.09803 25.0393 8.09606 25.7973Z" fill="#E2E2E2"/>
  <path fill-rule="evenodd" clip-rule="evenodd" d="M13.9073 28.0362H17.7994H21.6895C21.6895 21.7732 27.742 20.9629 27.7339 14.2302C27.7279 7.81194 22.7627 4.65521 17.7994 4.72577C12.8341 4.65521 7.87086 7.81194 7.8628 14.2302C7.85474 20.9629 13.9073 21.7732 13.9073 28.0362Z" fill="#FE9737"/>
  <path fill-rule="evenodd" clip-rule="evenodd" d="M15.126 5.00626C19.2637 5.4477 23.0792 8.17301 23.6249 13.2004C23.6692 13.6016 23.6914 14.0188 23.6914 14.4481C23.6934 15.073 23.641 15.6475 23.5464 16.1797C23.4357 16.8066 23.2665 17.3731 23.0531 17.8992C22.888 18.3063 22.6967 18.6894 22.4873 19.0501C20.8624 21.8541 18.1241 23.5131 17.7012 27.2463H20.2704C20.514 26.1597 21.0557 25.1297 21.8993 24.2851C22.2839 23.9001 22.7088 23.5775 23.1578 23.3175C24.9497 20.6446 27.7404 18.8042 27.7344 14.2304C27.7284 7.81215 22.7631 4.65542 17.7999 4.72598C16.8978 4.71189 15.9979 4.8067 15.126 5.00626Z" fill="#F36B37"/>
  <path d="M17.7995 2.61081C17.5049 2.61081 17.2661 2.37209 17.2661 2.07751V0.533304C17.2661 0.238729 17.5048 0 17.7995 0C18.0941 0 18.3328 0.238729 18.3328 0.533304V2.07744C18.3328 2.37202 18.0941 2.61081 17.7995 2.61081Z" fill="#FE9737"/>
  <path d="M12.0807 3.98347C11.9441 3.98347 11.8075 3.93133 11.7033 3.827L10.612 2.7344C10.4039 2.52601 10.4041 2.18834 10.6125 1.98016C10.8208 1.77205 11.1585 1.77226 11.3667 1.98065L12.458 3.07325C12.6661 3.28164 12.6659 3.61931 12.4575 3.82749C12.3534 3.93147 12.2171 3.98347 12.0807 3.98347Z" fill="#FE9737"/>
  <path d="M23.5153 3.98347C23.3789 3.98347 23.2425 3.93147 23.1384 3.82749C22.93 3.61931 22.9298 3.28164 23.1379 3.07325L24.2291 1.98065C24.4373 1.77226 24.7751 1.77205 24.9834 1.98016C25.1918 2.18834 25.192 2.52601 24.9839 2.7344L23.8926 3.827C23.7885 3.93133 23.6518 3.98347 23.5153 3.98347Z" fill="#FE9737"/>
  <path d="M19.3411 15.7554H15.9967C15.7021 15.7554 15.4634 15.9941 15.4634 16.2887C15.4634 16.5832 15.7021 16.822 15.9967 16.822H17.1668V27.2464C17.1668 27.541 17.4055 27.7798 17.7002 27.7798C17.9948 27.7798 18.2335 27.541 18.2335 27.2464V16.822H19.3411C19.6357 16.822 19.8745 16.5833 19.8745 16.2887C19.8745 15.9942 19.6356 15.7554 19.3411 15.7554Z" fill="#E2E2E2"/>
  <path fill-rule="evenodd" clip-rule="evenodd" d="M14.562 31.4635L17.548 30.2661L21.0373 31.4635V33.6687C21.0373 34.8822 20.0447 35.876 18.8326 35.876H16.7647C15.5526 35.876 14.562 34.8822 14.562 33.6687V31.4635Z" fill="#838383"/>
  <path fill-rule="evenodd" clip-rule="evenodd" d="M13.4198 27.2466H22.1784C22.569 27.2466 22.8872 27.5651 22.8872 27.9561V30.752C22.8872 31.143 22.569 31.4635 22.1784 31.4635H13.4198C13.0291 31.4635 12.709 31.143 12.709 30.752V27.9561C12.709 27.5651 13.0291 27.2466 13.4198 27.2466Z" fill="#F9F7F7"/>
  <path fill-rule="evenodd" clip-rule="evenodd" d="M20.0447 31.4634H14.562V32.8361H18.4823C19.4186 32.8361 19.475 33.1022 19.475 33.9387V34.2673V35.0414C19.475 35.3135 19.4247 35.5756 19.332 35.8175C20.3066 35.5897 21.0375 34.7108 21.0375 33.6686V32.8966V31.4634H20.0447Z" fill="#595959"/>
  <path fill-rule="evenodd" clip-rule="evenodd" d="M17.7006 27.2466C17.6422 27.5066 17.6019 27.7707 17.5778 28.0368C17.5093 28.8148 17.5898 29.605 17.8214 30.359C17.9281 30.7117 18.069 31.0544 18.2402 31.385L18.2825 31.4636H20.0442H20.8517C20.8376 31.4374 20.8235 31.4112 20.8094 31.385C20.2678 30.3449 20.0463 29.1777 20.147 28.0368C20.1711 27.7707 20.2114 27.5066 20.2698 27.2466H17.7006Z" fill="#E2E2E2"/>
  <path fill-rule="evenodd" clip-rule="evenodd" d="M21.8985 32.8684C24.2664 35.239 28.1061 35.239 30.4739 32.8684C32.8418 30.4979 32.8418 26.6558 30.4739 24.2852C28.1061 21.9147 24.2664 21.9147 21.8985 24.2852C19.5306 26.6558 19.5306 30.4979 21.8985 32.8684Z" fill="#97DA7B"/>
  <path fill-rule="evenodd" clip-rule="evenodd" d="M28.2857 32.8686C30.6535 30.498 30.6535 26.6559 28.2857 24.2854C27.3816 23.3803 26.2621 22.82 25.0923 22.6062C26.985 22.2595 29.0105 22.8199 30.4743 24.2854C32.8422 26.6559 32.8422 30.498 30.4743 32.8686C29.0105 34.334 26.985 34.8944 25.0923 34.5477C26.2621 34.334 27.3816 33.7737 28.2857 32.8686Z" fill="#68CA44"/>
  <path d="M28.4133 27.3189L26.5648 25.4684C26.557 25.4606 26.55 25.4543 26.5432 25.4488C26.4487 25.364 26.3243 25.312 26.1874 25.312C26.0399 25.312 25.9065 25.3719 25.81 25.4686L23.9599 27.3188C23.7516 27.5271 23.7516 27.8648 23.96 28.0731C24.0641 28.1772 24.2006 28.2292 24.3371 28.2292C24.4736 28.2292 24.6101 28.1772 24.7143 28.073L25.6541 27.1331V31.3082C25.6541 31.6028 25.8928 31.8416 26.1875 31.8416C26.4821 31.8416 26.7209 31.6028 26.7209 31.3082V27.1341L27.6586 28.0729C27.7628 28.1772 27.8994 28.2293 28.0359 28.2293C28.1723 28.2293 28.3087 28.1773 28.4129 28.0733C28.6212 27.865 28.6214 27.5273 28.4133 27.3189Z" fill="#E2E2E2"/>
</svg>
