<svg width="16" height="16" viewBox="0 0 16 16" fill="none" xmlns="http://www.w3.org/2000/svg">
<path fill-rule="evenodd" clip-rule="evenodd" d="M10.6556 10.0598H11.3139L14.8472 13.6098C15.1889 13.9514 15.1889 14.5098 14.8472 14.8514C14.5056 15.1931 13.9472 15.1931 13.6056 14.8514L10.0639 11.3098V10.6514L9.83892 10.4181C8.67225 11.4181 7.08058 11.9348 5.38892 11.6514C3.07225 11.2598 1.22225 9.32643 0.938917 6.9931C0.505583 3.4681 3.47225 0.501433 6.99725 0.934766C9.33058 1.2181 11.2639 3.0681 11.6556 5.38477C11.9389 7.07643 11.4222 8.6681 10.4222 9.83477L10.6556 10.0598ZM2.56384 6.30977C2.56384 8.38477 4.23884 10.0598 6.31384 10.0598C8.38884 10.0598 10.0638 8.38477 10.0638 6.30977C10.0638 4.23477 8.38884 2.55977 6.31384 2.55977C4.23884 2.55977 2.56384 4.23477 2.56384 6.30977Z" fill="#B1B1B1"/>
</svg>
