<svg width="17" height="16" viewBox="0 0 17 16" fill="none" xmlns="http://www.w3.org/2000/svg">
	<g clip-path="url(#clip0_7583_6010)">
		<path d="M16.4878 11.3064L12.9878 9.80641C12.8383 9.74269 12.6721 9.72926 12.5143 9.76815C12.3565 9.80704 12.2156 9.89614 12.1128 10.022L10.5628 11.9158C8.13019 10.7688 6.17252 8.81118 5.02559 6.3786L6.91934 4.8286C7.04549 4.726 7.13477 4.58509 7.17368 4.42721C7.21258 4.26932 7.19899 4.10306 7.13496 3.9536L5.63496 0.453597C5.56468 0.292474 5.44039 0.160923 5.28351 0.0816275C5.12663 0.00233161 4.947 -0.0197389 4.77559 0.0192217L1.52559 0.769222C1.36033 0.807384 1.21288 0.900434 1.10732 1.03319C1.00175 1.16594 0.944298 1.33055 0.944336 1.50016C0.944336 9.51579 7.44121 16.0002 15.4443 16.0002C15.614 16.0003 15.7787 15.9429 15.9115 15.8373C16.0443 15.7317 16.1374 15.5842 16.1756 15.4189L16.9256 12.1689C16.9643 11.9967 16.9418 11.8163 16.8618 11.6589C16.7819 11.5015 16.6497 11.3768 16.4878 11.3064Z" fill="white"/>
	</g>
	<defs>
		<clipPath id="clip0_7583_6010">
			<rect width="16" height="16" fill="white" transform="translate(0.944336)"/>
		</clipPath>
	</defs>
</svg>