<svg width="60" height="60" viewBox="0 0 60 60" fill="none" xmlns="http://www.w3.org/2000/svg">
	<path d="M18.9286 43.1111C18.9286 44.1425 19.3349 45.1317 20.0583 45.861C20.7817 46.5903 21.7627 47 22.7857 47H38.2143C39.2373 47 40.2183 46.5903 40.9417 45.861C41.6651 45.1317 42.0714 44.1425 42.0714 43.1111V19.7778H18.9286V43.1111ZM37.25 13.9444L35.3214 12H25.6786L23.75 13.9444H17V17.8333H44V13.9444H37.25Z" fill="#00ACEA"/>
	<path d="M41.5505 29.9258C46.9431 30.6821 51.0916 35.3093 51.0916 40.9104C51.0916 47.0334 46.1255 52 40.0024 52C35.793 52 32.1226 49.6516 30.2524 46.1899C29.4001 44.6157 28.9131 42.8154 28.9131 40.9019C28.9131 34.7788 33.8794 29.8125 40.0024 29.8125C40.5244 29.8213 41.0374 29.8562 41.5505 29.9258Z" fill="#FEDB41"/>
	<path d="M43.1016 42.8538L41.2198 40.9719L43.1324 39.0593C43.4707 38.721 43.4707 38.1675 43.1324 37.8291C42.7942 37.491 42.2407 37.491 41.9024 37.8293L39.9897 39.7419L38.0771 37.8293C37.7388 37.491 37.1853 37.491 36.8471 37.8291C36.5088 38.1675 36.5086 38.7211 36.847 39.0595L38.7596 40.9721L36.8777 42.854C36.5395 43.1922 36.5393 43.7458 36.8775 44.084C37.2159 44.4224 37.7695 44.4222 38.1077 44.084L39.9896 42.2021L41.8715 44.084C42.2098 44.4224 42.7633 44.422 43.1016 44.0837C43.4398 43.7455 43.44 43.1922 43.1016 42.8538Z" fill="#083863"/>
</svg>
