<svg width="33" height="27" viewBox="0 0 33 27" fill="none" xmlns="http://www.w3.org/2000/svg">
  <path d="M18.8013 0C11.4734 0 5.41602 5.95307 5.41602 13.2811C5.41602 20.6092 11.4734 26.6664 18.8013 26.6664C26.1293 26.6664 32.0825 20.6092 32.0825 13.2811C32.0825 5.95307 26.1293 0 18.8013 0Z" fill="#FEDB41"/>
  <path d="M32.0829 13.2811C32.0829 20.6092 26.1297 26.6664 18.8018 26.6664V0C26.1297 0 32.0829 5.95307 32.0829 13.2811Z" fill="#FEDB41"/>
  <path d="M18.8013 3.125C13.2075 3.125 8.54102 7.68741 8.54102 13.2812C8.54102 18.8749 13.2075 23.5415 18.8013 23.5415C24.3952 23.5415 28.9575 18.8749 28.9575 13.2812C28.9575 7.68741 24.3952 3.125 18.8013 3.125Z" fill="#FEA832"/>
  <path d="M28.9579 13.2812C28.9579 18.8749 24.3956 23.5415 18.8018 23.5415V3.125C24.3956 3.125 28.9579 7.68741 28.9579 13.2812Z" fill="#F9C200"/>
  <path d="M20.3639 12.4999H19.5826V9.37497H20.3639C20.8014 9.37497 21.1451 9.71867 21.1451 10.1562C21.1451 11.1874 22.7076 11.1874 22.7076 10.1562C22.7076 8.8593 21.6609 7.81249 20.3639 7.81249H19.5826V7.03124C19.5826 6.51557 19.192 6.25 18.8014 6.25C18.4108 6.25 18.0202 6.51557 18.0202 7.03124V7.81249H17.1347C15.8378 7.81249 14.791 8.8593 14.791 10.1562V11.7187C14.791 13.0156 15.8378 14.0624 17.1347 14.0624H18.0202V17.2916H17.1347C16.6972 17.2916 16.3535 16.9479 16.3535 16.5103C16.3535 15.4791 14.791 15.4791 14.791 16.5103C14.791 17.8072 15.8378 18.8541 17.1347 18.8541H18.0202V19.6353C18.0202 20.151 18.4108 20.4165 18.8014 20.4165C19.192 20.4165 19.5826 20.151 19.5826 19.6353V18.8541H20.3639C21.6609 18.8541 22.7076 17.8072 22.7076 16.5103V14.8437C22.7076 13.5468 21.6609 12.4999 20.3639 12.4999ZM18.0202 12.4999H17.1347C16.6972 12.4999 16.3535 12.1563 16.3535 11.7187V10.1562C16.3535 9.71867 16.6972 9.37497 17.1347 9.37497H18.0202V12.4999ZM21.1451 16.5103C21.1451 16.9479 20.8014 17.2916 20.3639 17.2916H19.5826V14.0624H20.3639C20.8014 14.0624 21.1451 14.4061 21.1451 14.8437V16.5103Z" fill="white"/>
  <path d="M13.4683 0C6.14035 0 0.0830078 5.95307 0.0830078 13.2811C0.0830078 20.6092 6.14035 26.6664 13.4683 26.6664C20.7963 26.6664 26.7494 20.6092 26.7494 13.2811C26.7494 5.95307 20.7963 0 13.4683 0Z" fill="#FEDB41"/>
  <path d="M26.7499 13.2811C26.7499 20.6092 20.7967 26.6664 13.4688 26.6664V0C20.7967 0 26.7499 5.95307 26.7499 13.2811Z" fill="#FFCC33"/>
  <path d="M13.4683 3.125C7.87453 3.125 3.20801 7.68741 3.20801 13.2812C3.20801 18.8749 7.87453 23.5415 13.4683 23.5415C19.0621 23.5415 23.6245 18.8749 23.6245 13.2812C23.6245 7.68741 19.0621 3.125 13.4683 3.125Z" fill="#FEA832"/>
  <path d="M23.6249 13.2812C23.6249 18.8749 19.0626 23.5415 13.4688 23.5415V3.125C19.0626 3.125 23.6249 7.68741 23.6249 13.2812Z" fill="#FE9923"/>
  <path d="M15.0309 12.4999H14.2496V9.37497H15.0309C15.4684 9.37497 15.8121 9.71867 15.8121 10.1562C15.8121 11.1874 17.3746 11.1874 17.3746 10.1562C17.3746 8.8593 16.3278 7.81249 15.0309 7.81249H14.2496V7.03124C14.2496 6.51557 13.859 6.25 13.4684 6.25C13.0778 6.25 12.6871 6.51557 12.6871 7.03124V7.81249H11.8017C10.5048 7.81249 9.45801 8.8593 9.45801 10.1562V11.7187C9.45801 13.0156 10.5048 14.0624 11.8017 14.0624H12.6871V17.2916H11.8017C11.3642 17.2916 11.0205 16.9479 11.0205 16.5103C11.0205 15.4791 9.45801 15.4791 9.45801 16.5103C9.45801 17.8072 10.5048 18.8541 11.8017 18.8541H12.6871V19.6353C12.6871 20.151 13.0778 20.4165 13.4684 20.4165C13.859 20.4165 14.2496 20.151 14.2496 19.6353V18.8541H15.0309C16.3278 18.8541 17.3746 17.8072 17.3746 16.5103V14.8437C17.3746 13.5468 16.3278 12.4999 15.0309 12.4999ZM12.6871 12.4999H11.8017C11.3642 12.4999 11.0205 12.1563 11.0205 11.7187V10.1562C11.0205 9.71867 11.3642 9.37497 11.8017 9.37497H12.6871V12.4999ZM15.8121 16.5103C15.8121 16.9479 15.4684 17.2916 15.0309 17.2916H14.2496V14.0624H15.0309C15.4684 14.0624 15.8121 14.4061 15.8121 14.8437V16.5103Z" fill="white"/>
</svg>
