<svg width="16" height="16" viewBox="0 0 16 16" fill="none" xmlns="http://www.w3.org/2000/svg">
<g opacity="0.2">
<mask id="path-1-inside-1" fill="white">
<path d="M8.99951 13.999V2.49902C8.99951 2.36642 8.94683 2.23924 8.85307 2.14547C8.7593 2.0517 8.63212 1.99902 8.49951 1.99902H2.49951C2.3669 1.99902 2.23973 2.0517 2.14596 2.14547C2.05219 2.23924 1.99951 2.36642 1.99951 2.49902V13.999"/>
</mask>
<path d="M8.99951 13.999V2.49902C8.99951 2.36642 8.94683 2.23924 8.85307 2.14547C8.7593 2.0517 8.63212 1.99902 8.49951 1.99902H2.49951C2.3669 1.99902 2.23973 2.0517 2.14596 2.14547C2.05219 2.23924 1.99951 2.36642 1.99951 2.49902V13.999" fill="#06B1FB"/>
<path d="M8.49951 1.99902V1.87402V1.99902ZM2.49951 1.99902V1.87402V1.99902ZM1.99951 2.49902H1.87451H1.99951ZM9.12451 13.999V2.49902H8.87451V13.999H9.12451ZM9.12451 2.49902C9.12451 2.33326 9.05866 2.17429 8.94145 2.05708L8.76468 2.23386C8.835 2.30418 8.87451 2.39957 8.87451 2.49902H9.12451ZM8.94145 2.05708C8.82424 1.93987 8.66527 1.87402 8.49951 1.87402V2.12402C8.59897 2.12402 8.69435 2.16353 8.76468 2.23386L8.94145 2.05708ZM8.49951 1.87402H2.49951V2.12402H8.49951V1.87402ZM2.49951 1.87402C2.33375 1.87402 2.17478 1.93987 2.05757 2.05708L2.23435 2.23386C2.30467 2.16353 2.40006 2.12402 2.49951 2.12402V1.87402ZM2.05757 2.05708C1.94036 2.17429 1.87451 2.33326 1.87451 2.49902H2.12451C2.12451 2.39957 2.16402 2.30418 2.23435 2.23386L2.05757 2.05708ZM1.87451 2.49902V13.999H2.12451V2.49902H1.87451Z" fill="#0B5492" mask="url(#path-1-inside-1)"/>
</g>
<path d="M8.99951 13.999V2.49902C8.99951 2.36642 8.94683 2.23924 8.85307 2.14547C8.7593 2.0517 8.63212 1.99902 8.49951 1.99902H2.49951C2.3669 1.99902 2.23973 2.0517 2.14596 2.14547C2.05219 2.23924 1.99951 2.36642 1.99951 2.49902V13.999" stroke="#0B5492" stroke-linecap="round" stroke-linejoin="round"/>
<path d="M13.9995 13.999V6.49902C13.9995 6.36642 13.9468 6.23924 13.8531 6.14547C13.7593 6.0517 13.6321 5.99902 13.4995 5.99902H8.99951" stroke="#0B5492" stroke-linecap="round" stroke-linejoin="round"/>
<path d="M3.99951 4.49902H5.99951" stroke="#0B5492" stroke-linecap="round" stroke-linejoin="round"/>
<path d="M4.99951 9.49902H6.99951" stroke="#0B5492" stroke-linecap="round" stroke-linejoin="round"/>
<path d="M3.99951 11.999H5.99951" stroke="#0B5492" stroke-linecap="round" stroke-linejoin="round"/>
<path d="M10.9995 10.999H11.9995" stroke="#0B5492" stroke-linecap="round" stroke-linejoin="round"/>
<path d="M10.9995 8.49902H11.9995" stroke="#0B5492" stroke-linecap="round" stroke-linejoin="round"/>
</svg>
