<svg width="16" height="16" viewBox="0 0 16 16" fill="none" xmlns="http://www.w3.org/2000/svg">
<path opacity="0.2" d="M8 14.4231C7.99423 14.419 7.98779 14.4143 7.9807 14.4091C7.94443 14.3826 7.89109 14.3431 7.82311 14.2912C7.68715 14.1873 7.49269 14.0336 7.25923 13.8352C6.79222 13.4382 6.16961 12.8623 5.54716 12.1465C4.30074 10.7131 3.0625 8.7275 3.0625 6.5C3.0625 5.19049 3.5827 3.93462 4.50866 3.00866C5.43462 2.0827 6.69049 1.5625 8 1.5625C9.3095 1.5625 10.5654 2.0827 11.4913 3.00866C12.4173 3.93462 12.9375 5.19049 12.9375 6.5C12.9375 8.7275 11.6993 10.7131 10.4528 12.1465C9.83039 12.8623 9.20778 13.4382 8.74077 13.8352C8.50731 14.0336 8.31285 14.1873 8.17689 14.2912C8.10891 14.3431 8.05557 14.3826 8.0193 14.4091C8.01221 14.4143 8.00576 14.419 8 14.4231ZM6.85414 8.21491C7.19331 8.44154 7.59208 8.5625 8 8.5625C8.54701 8.56249 9.07161 8.34519 9.4584 7.9584C9.84519 7.57161 10.0625 7.04701 10.0625 6.5C10.0625 6.09208 9.94154 5.69331 9.71491 5.35414C9.48828 5.01496 9.16616 4.7506 8.78928 4.5945C8.41241 4.43839 7.99771 4.39755 7.59763 4.47713C7.19754 4.55671 6.83004 4.75315 6.54159 5.04159C6.25315 5.33004 6.05671 5.69754 5.97713 6.09763C5.89755 6.49771 5.93839 6.91241 6.0945 7.28928C6.2506 7.66616 6.51496 7.98828 6.85414 8.21491Z" fill="#06B1FB" stroke="#0B5492" stroke-width="0.125"/>
<path d="M3.5 14.5H12.5" stroke="#0B5492" stroke-linecap="round" stroke-linejoin="round"/>
<path d="M8 8.5C9.10457 8.5 10 7.60457 10 6.5C10 5.39543 9.10457 4.5 8 4.5C6.89543 4.5 6 5.39543 6 6.5C6 7.60457 6.89543 8.5 8 8.5Z" stroke="#0B5492" stroke-linecap="round" stroke-linejoin="round"/>
<path d="M13 6.5C13 11 8 14.5 8 14.5C8 14.5 3 11 3 6.5C3 5.17392 3.52678 3.90215 4.46447 2.96447C5.40215 2.02678 6.67392 1.5 8 1.5C9.32608 1.5 10.5979 2.02678 11.5355 2.96447C12.4732 3.90215 13 5.17392 13 6.5V6.5Z" stroke="#0B5492" stroke-linecap="round" stroke-linejoin="round"/>
</svg>
