<svg width="16" height="16" viewBox="0 0 16 16" fill="none" xmlns="http://www.w3.org/2000/svg">
<path opacity="0.2" d="M5.72341 7.8278L5.72362 7.82823C6.24842 8.90114 7.11811 9.76688 8.1934 10.2868L8.19384 10.287C8.2814 10.3285 8.37825 10.3465 8.47487 10.3392C8.57147 10.3318 8.66451 10.2995 8.74482 10.2453C8.74483 10.2453 8.74484 10.2453 8.74485 10.2453L10.3093 9.2021C10.3699 9.16172 10.4395 9.13709 10.512 9.13043C10.5845 9.12377 10.6575 9.1353 10.7244 9.16397L13.6517 10.4185L13.6519 10.4186C13.7388 10.4556 13.8114 10.5198 13.8587 10.6016C13.906 10.6833 13.9255 10.7782 13.9142 10.8719C13.8235 11.5807 13.4777 12.2323 12.9413 12.7045C12.4049 13.1767 11.7147 13.4373 11 13.4373C8.76224 13.4373 6.61612 12.5484 5.03379 10.966C3.45145 9.38369 2.5625 7.23758 2.5625 4.99982C2.56254 4.28513 2.82308 3.59496 3.29534 3.05854C3.76755 2.52217 4.41906 2.17629 5.1279 2.08565C5.22164 2.07435 5.31652 2.0938 5.39826 2.14107C5.48005 2.18838 5.54426 2.26099 5.5812 2.34796L5.58128 2.34814L6.83694 5.27801C6.86536 5.34432 6.87694 5.41663 6.87065 5.48849C6.86436 5.56036 6.84039 5.62956 6.80088 5.68993L5.76129 7.27838C5.76126 7.27842 5.76123 7.27847 5.7612 7.27852C5.70797 7.35897 5.67649 7.45185 5.66986 7.54809C5.66322 7.64439 5.68167 7.74076 5.72341 7.8278Z" fill="#06B1FB" stroke="#0B5492" stroke-width="0.125"/>
<path d="M5.77977 7.80077C6.29842 8.86111 7.15792 9.7167 8.2206 10.2305C8.29835 10.2674 8.38436 10.2833 8.47015 10.2768C8.55595 10.2703 8.63857 10.2416 8.7099 10.1935L10.2746 9.1501C10.3438 9.10395 10.4235 9.0758 10.5063 9.06819C10.5891 9.06058 10.6725 9.07376 10.749 9.10652L13.6763 10.3611C13.7757 10.4033 13.8588 10.4767 13.9128 10.5703C13.9669 10.6638 13.9892 10.7724 13.9762 10.8796C13.8837 11.6036 13.5304 12.2691 12.9826 12.7514C12.4347 13.2337 11.7299 13.4998 11 13.4998C8.74566 13.4998 6.58365 12.6043 4.98959 11.0102C3.39553 9.41617 2.5 7.25416 2.5 4.99982C2.50004 4.26993 2.76612 3.56507 3.24843 3.01724C3.73073 2.4694 4.39618 2.11615 5.12019 2.02363C5.22745 2.01065 5.33602 2.03288 5.42955 2.08697C5.52307 2.14106 5.59649 2.22408 5.63873 2.32352L6.89439 5.25339C6.92687 5.32917 6.9401 5.41181 6.93291 5.49394C6.92572 5.57608 6.89833 5.65516 6.85318 5.72415L5.81341 7.31288C5.76608 7.38435 5.7381 7.46688 5.73221 7.55239C5.72631 7.6379 5.7427 7.72348 5.77977 7.80077V7.80077Z" stroke="#0B5492" stroke-linecap="round" stroke-linejoin="round"/>
<path d="M9.96338 2.5C10.811 2.72796 11.5838 3.17464 12.2045 3.79529C12.8252 4.41595 13.2718 5.18879 13.4998 6.03641" stroke="#0B5492" stroke-linecap="round" stroke-linejoin="round"/>
<path d="M9.4458 4.43213C9.95437 4.5689 10.4181 4.83691 10.7905 5.20931C11.1629 5.5817 11.4309 6.04541 11.5676 6.55398" stroke="#0B5492" stroke-linecap="round" stroke-linejoin="round"/>
</svg>
