<svg width="17" height="16" viewBox="0 0 17 16" fill="none" xmlns="http://www.w3.org/2000/svg">
  <path fill-rule="evenodd" clip-rule="evenodd" d="M11.1053 9.74323H11.6614L14.6459 12.7418C14.9345 13.0304 14.9345 13.502 14.6459 13.7906C14.3573 14.0792 13.8857 14.0792 13.5971 13.7906L10.6055 10.7991V10.243L10.4155 10.0459C9.43004 10.8906 8.08561 11.327 6.65671 11.0877C4.6999 10.7568 3.13726 9.1238 2.89794 7.15291C2.53192 4.17546 5.03776 1.66961 8.01522 2.03563C9.98611 2.27496 11.6191 3.83759 11.95 5.79441C12.1893 7.2233 11.7529 8.56773 10.9082 9.55318L11.1053 9.74323ZM4.27002 6.57577C4.27002 8.32845 5.68484 9.74327 7.43752 9.74327C9.19021 9.74327 10.605 8.32845 10.605 6.57577C10.605 4.82308 9.19021 3.40826 7.43752 3.40826C5.68484 3.40826 4.27002 4.82308 4.27002 6.57577Z" fill="white"/>
</svg>